<?xml version="1.0" encoding="utf-8"?>
<!-- Generator: Adobe Illustrator 24.0.3, SVG Export Plug-In . SVG Version: 6.00 Build 0)  -->
<svg version="1.1" id="Layer_1" xmlns="http://www.w3.org/2000/svg" xmlns:xlink="http://www.w3.org/1999/xlink" x="0px" y="0px"
	 viewBox="0 0 300 300" style="enable-background:new 0 0 300 300;" xml:space="preserve">
<style type="text/css">
	.st0{fill:#FFFFFF;}
</style>
<g>
	<circle class="st0" cx="150" cy="150" r="128"/>
	<g>
		<path d="M215,63.7c1.2-1.6,1-4.3-1.8-6.3l-4.7,6.5C211.2,65.9,213.8,65.3,215,63.7"/>
		<path d="M258.5,134.4l-21.7,3.8l-1.4-7.9l21.7-3.8l-1.2-6.9l6.1-0.1l3.4,19.7l-5.7,2L258.5,134.4z M255.5,188.1
			c-1.8-0.6-15.8-4.8-18.3-5.6l3.2-10.4l4.1,0.6l-1.8,5.9l3.3,1l1.6-5.2l3.9,1.2l-1.6,5.2l3.3,1l2-6.5l3.7,1.9L255.5,188.1z
			 M250.3,199.5c-1.5,2.9-3.5,4.6-7.4,5.4l-1-3c1.8-0.2,4.6-1,5.6-3.1c0.6-1.2,0.3-2.1-0.3-2.4c-2.2-1.2-7.4,7-12.8,4.2
			c-1.8-0.9-3.9-4.3-1.8-8.6c1.5-2.9,3.5-4.6,7.4-5.4l1,3c-1.8,0.2-4.6,1-5.6,3.1c-0.6,1.2-0.3,2.1,0.3,2.4c2.2,1.1,7.4-7,12.9-4.2
			C250.4,191.8,252.5,195.2,250.3,199.5 M238.8,217.9c-3.7,4.9-8.8,3.6-12.6,0.7l-7.6-5.8l3.3-4.3l7.6,5.8c3.8,2.9,5.8,3.6,7.1,2
			c1.3-1.6,0.1-3.4-3.7-6.3l-7.6-5.8l3.3-4.3l7.6,5.8C240,208.5,242.6,213,238.8,217.9 M223.7,234.7c-4.4,3.8-9.9,1.9-13.3-2
			c-3.3-3.8-4.4-9.6,0-13.4c4.4-3.8,9.9-1.9,13.3,2C227,225.2,228.1,230.9,223.7,234.7 M206.7,246.2l-4.3-7.8l-4.8,2.6l4.3,7.8
			l-4.8,2.6l-9.2-16.7l4.8-2.6l3.6,6.6l4.8-2.6l-3.6-6.6l4.8-2.6l9.2,16.7L206.7,246.2z M221.5,130.4l2.5-2.8
			c0.7-0.8,1.9-1.1,2.8-0.7c0.3,0.1,0.6,0.3,0.8,0.5l2.1,1.8c1.1,1,1.2,2.6,0.2,3.7l-2.5,2.8C224.7,132.3,221.5,130.4,221.5,130.4
			 M217.9,169.5l-0.2,1.6c0,0,0,0.1-0.1,0.1l-1.6-0.2c0,0-0.1,0-0.1-0.1l0.2-1.6c0,0,0-0.1,0.1-0.1L217.9,169.5
			C217.9,169.5,217.9,169.5,217.9,169.5 M186.9,213.1c-1.4,0.8-3,1.4-4.4,1.1c-3-0.5-5.1-1.6-9.4-2.9c-0.2-0.1-0.5,0.1-0.4,0.4
			c0,0.2-0.1,0.3-0.2,0.4c-1.1,0.4-5.4,1.9-8.9,2c-0.1,0-0.2-0.1-0.3-0.2l-0.2-0.4c-0.1-0.1-0.2-0.2-0.3-0.2l-0.6,0.1
			c-0.1,0-0.2,0.1-0.2,0.2l-0.6,1.2c0,0.1-0.1,0.2-0.2,0.2l-1.6,0.4c-0.1,0-0.2,0-0.3-0.1l-0.6-0.6c1.1-0.4,1.8-0.9,2.3-1.3
			c0.3-0.3,0.5-0.7,0.7-1.1l1.2-0.4c0.2,0.4,0.5,0.7,1,0.8c0.1,0,0.2,0,0.2,0c4-0.3,6.5-1.3,7.3-1.7c0.4-0.2,0.7-0.6,0.7-1.1
			c0,0,0-0.1,0-0.1c1.5,0.7,3,1.3,4.5,1.8c1.9,0.6,3.8,1.2,5.8,1.4c1,0.1,2.1,0.1,3.2-0.5c0.1-0.1,0.3-0.1,0.4-0.2
			c0.1-0.1,0.3-0.2,0.4-0.3c0.1-0.1,0.2-0.2,0.3-0.4c0.1-0.1,0.1-0.1,0.1-0.2l0.1-0.1c0.3-0.4,0.6-0.7,0.9-1
			c0.6-0.6,1.4-1.2,2.2-1.5c0.2-0.1,0.4-0.2,0.6-0.2c0.1,0,0.2-0.1,0.3-0.1l0.2,0c0.1,0,0.1,0,0.2-0.1c0.6-0.2,1.1-0.5,1.5-0.8
			l0.3-0.2c0.1-0.1,0.1-0.1,0.2-0.2c0.1-0.1,0.2-0.2,0.4-0.3c0.4-0.3,0.9-0.6,1.4-0.8c0.4-0.2,0.8-0.4,1.3-0.5
			c0.6-0.2,1.1-0.5,1.5-0.9l1.1-1l0.6-0.5c0.2-0.2,0.4-0.4,0.5-0.6c0.5-0.6,0.8-1.2,1-1.9c0,0,0,0.1,0,0.1c0.1-0.2,0.1-0.3,0.1-0.3
			l0.2-2.4c0,0,0-0.1-0.1-0.1c0-0.5-0.1-1-0.2-1.4c-0.1-0.2-0.1-0.5-0.2-0.7c-0.1-0.2-0.2-0.5-0.3-0.7c-0.2-0.5-0.4-0.9-0.6-1.4
			c0,0,0-0.1,0-0.1c0.2-0.8,1.5-6-2-10c-1.8-2.1-3.6-4.6-5.1-7l1.1-1.2c0.8-0.9,1-2.3,0.5-3.4l8.7-9.8c0.5,0.3,1.1,0.6,1.7,0.8
			c0,0,0,0,0-0.1l0.1,0.1l1-1.1l3.1-3.5c0.8-0.9,1-2.3,0.5-3.4l1-1.2c0.4,0.2,0.8,0.4,1.2,0.6c0,0,0,0,0,0l0,0l1-1.1l2.4-2.8
			c0.7-0.8,1-1.9,0.8-2.9l3.1-3.5l-2.8,23.5c-1.1-0.1-2,0.7-2.2,1.8l-0.2,1.6c-0.1,0.7,0.2,1.4,0.8,1.8c0,0-0.4,0.5-0.8,1.3
			c-0.2,0.4-0.5,0.8-0.7,1.3c-1.3,2.7-2.7,7.2-0.6,11.5l2.2,0.3c0,0,0.5-3.2,2.8-8.1c0,0,0,3.4-1.5,8.2c-0.1,0.2,1.3,0.2,1.3,0.2
			c3.1-4.9,1.7-11.7,1.5-12.5c-0.3-1-0.6-1.7-0.6-1.7c0.6-0.3,1.1-0.9,1.2-1.6l0.2-1.6c0.1-1-0.5-1.9-1.5-2.2l3.1-26.3l4.3-4.8
			c0.5,0.3,1.1,0.6,1.7,0.8c0,0,0,0,0-0.1l0.1,0.1l0.8-0.9l2.5-2.8c1.4-1.5,1.2-3.9-0.3-5.3l-2.1-1.8c-0.3-0.3-0.7-0.5-1.2-0.7
			c-1.5-0.5-3.1-0.1-4.1,1l-2.5,2.8l-0.8,0.9l0.2,0.2c0,0.2,0.2,0.8,0.8,1.6l-2.3,2.6c-8.7-3.1-15.5-9.3-18.6-12.7l1.5-2.8
			c0.6,0.1,1.2,0.3,1.9,0.4c0,0,0,0,0-0.1l0.1,0l0.5-1l1.8-3.3c1-1.8,0.3-4.1-1.5-5.1l-2.4-1.3c-0.4-0.2-0.9-0.4-1.3-0.4
			c-1.5-0.2-3,0.6-3.8,2l-1.8,3.3l-0.5,1l0.2,0.1c0.1,0.1,0.4,0.7,1.1,1.3l-1.4,2.6c-11.1-2.1-18.1-4.9-21.7-6.6
			c-0.1-0.1-0.3-0.3-0.4-0.4l0.3-1.4l2.6-0.4l0,0l0,0l0.3-1.4l1-4.5c0.3-1.4-0.5-2.9-1.8-3.5l0.3-1.2l2-0.3l0,0l0,0l0.3-1.4l0.8-3.5
			c0.3-1.3-0.3-2.6-1.3-3.4l0.6-2.7l0,0l1.7-7.9l2.4-0.6l0.1,0l0.2-1.1l0.7-3.3c0.2-1,0-1.9-0.5-2.8c-0.5-0.8-1.4-1.4-2.3-1.6
			l-2.3-0.5c-0.1,0-0.2,0-0.4-0.1c-1.9-0.2-3.6,1-4,2.9l-0.7,3.3l-0.2,1.1l0,0l0,0l1.8,1.4l-2.3,10.6c-1.2,0.3-2.2,1.3-2.4,2.6
			c-0.3,1.2-0.5,2.5-0.8,3.7l-0.3,1.5l0,0l0,0l0,0h0l1.7,0.9l-0.2,1.1c-0.9,0-1.9,0.5-2.4,1.3c-0.4,0.6-0.5,1.1-0.5,1.1l-1.4,6.4
			l2.9,1.5l-8.9,37l-1.5,6.9c-0.1,0-0.2,0-0.4,0c-1.4-0.1-2.8,1-3.1,2.5l-0.5,2.2l-0.3,1.5l0.2,0c-0.1,0-0.2,0-0.2,0l2.6,1.5
			l-0.8,3.6c-0.1-0.1-0.1-0.2-0.1-0.2l-0.7-0.5c-3.3-2.2-7.7-2-10.8,0.5c0,0-0.1,0-0.1,0.1c-0.2,0.2-0.4,0.4-0.6,0.6c0,0,0,0-0.1,0
			c-2.1,2.4-3.9,5.2-5.2,8.4c-0.7-0.8-1.4-1.7-2.2-2.9c1.3-0.9,2.2-1.5,2.7-1.9l0.2,0.3c0.4-0.6,0.7-0.9,0.7-0.9
			c0-0.1,4.6-8.2,11.8-7.1c1.2,0.2,2.3,0.6,3.2,1.3l0.2,0.2c0.1-0.6,0,0,0.2-1c0,0-2.4-1.3-2.4-1.3l0.4-1.8l0.8-3.3
			c0.4-1.6,1.9-2.9,3.4-3c0.4-1.9,0.6-2.9,1-4.3c-2,0.3-5.3,1.1-11.3-0.5l-0.2-1.3c6.1,1.6,10.6,0.9,11.8,0.6l8.6-36.6l-2.9-1.5
			l1.6-7.4c0-0.1,0-0.2,0-0.2c-0.9-0.9-2-1.8-3.2-2.6c1.1-4,0.8-12.4-18-18.3c-1.4-0.4-2.9-0.7-4.4-0.7c-0.8,0-1.7,0-2.7,0.1
			c-0.4-1.3-1.4-2.3-2.8-2.6c-0.2,0-0.4-0.1-0.5-0.1c-0.7-0.7-1.6-1.2-2.6-1.4c-3.1-0.7-6.2,1.2-6.9,4.3c-0.1,0.3-0.1,0.6-0.1,0.9
			c-0.3,0.4-0.6,0.9-0.7,1.5c-0.2,0.9-0.1,1.8,0.3,2.6c-3.5,2.4-7.1,5.8-10.7,10.7c-2.3,3.2-5.7,4.7-7.2,10.6c0,0-1.8,5-0.6,7.3
			c-0.9,0.7-1.8,1.4-2.6,2.2c-1,1-1.9,2.1-2.6,3.4c-0.4,0.6-0.6,1.3-0.9,2c-0.2,0.7-0.4,1.4-0.4,2.1c-0.1,1.4,0,2.9,0.5,4.2L99,128
			l0.1,0.3l0.1,0.2c0.1,0.3,0.2,0.6,0.3,0.8c0.2,0.6,0.2,1.2,0.2,1.8c0,0.6-0.1,1.2-0.3,1.8c-0.2,0.6-0.5,1.1-0.9,1.6
			c-0.2,0.2-0.4,0.5-0.6,0.7c-0.2,0.2-0.5,0.4-0.7,0.7c-0.5,0.4-0.9,0.9-1.3,1.5c0.5-0.5,0.9-0.9,1.5-1.3c0.3-0.2,0.5-0.4,0.8-0.6
			c0.3-0.2,0.5-0.4,0.7-0.7c0.5-0.5,0.9-1,1.2-1.6c0.3-0.6,0.5-1.3,0.6-2c0-0.1,0-0.1,0-0.2c0.9,5.7-0.5,7.4-2.4,9.8
			c-0.1,0.1-0.1,0.1-0.2,0.2c-0.4,0.4-0.9,0.8-1.3,1.2c-0.8,0.8-1.6,1.6-2.3,2.5c-1.4,1.8-2.7,3.8-3.4,6c-0.7,2.2-0.9,4.6-0.4,6.8
			c0.3,1.1,0.6,2.1,1.2,3.1c0.5,1,1.1,1.9,1.8,2.7c-0.5-0.9-1-1.9-1.4-2.9c-0.4-1-0.6-2-0.7-3.1c-0.1-1,0-2.1,0.2-3.1
			c0.2-1,0.6-1.9,1-2.8c0.3-0.7,0.7-1.3,1.2-1.9c-2,9,1,12.6,4.2,15.3c-2.5,1.4-5.4,3.4-6.7,6c-0.4,0.9-0.8,1.6-1.1,2.2
			c-1.2,2.5-1.3,2.8-3.9,4.9c-1.6,1.3-3.6,2.6-5.3,3.6c-2,1.2-3.5,2.2-4.1,3c-1.1,1.5-1.9,3.9-2,4.6c-0.3,0.5-2.4,2.7-4.2,3.7
			c-2.3,1.3-5.3,6.8-4.5,11.2l0.1,0.4l0.3,0.2c0,0,2.4,1.4,4.9,3.8c2.7,2.5,5,4.4,7,5.7c1.3,0.8,2.6,1.3,3.9,1.4
			c4.2,0.5,8-1.9,9.4-2.9c1-0.7,2.1-1.2,3.2-1.3c1.7-0.2,3.1,0,4,0.5l0.1,0c0.1,0,1.3,0.6,3,0.3c1.4-0.2,3.3-1,5-3.7
			c0.1-0.2,0.4-0.4,0.6-0.4c1,0,2.6-0.2,3.8-0.9l0.5,0c5.4,0.4,8-0.8,8.1-0.8l0.4-0.2l0-0.4c0-0.2,0-0.4,0.1-0.6
			c0.1,0,0.2,0.1,0.4,0.1c0.5,1.2,2.2,5.9,2.6,14.5c0,0.2,0.1,0.4,0.1,0.6c0,0.3,0,0.9-0.2,1.7c0,0-0.1-0.1-0.1-0.1
			c0,0.6-0.1,1.1-0.2,1.7c-0.2,0.9-0.5,2-0.9,3.4c-9.4-3.4-18-8.4-25.5-14.8c-0.5,0-1,0-1.6,0c-0.9,0.1-1.9,0.5-2.7,1.1
			c-1.5,1.1-5.5,3.6-10.1,3.1c-1.5-0.2-3-0.7-4.4-1.6c-2-1.3-4.5-3.2-7.2-5.8c-2.3-2.2-4.5-3.5-4.8-3.6l-0.3-0.2
			c-0.3-0.2-0.4-0.4-0.5-0.7l-0.1-0.3c-0.8-4.6,2.1-10.7,5-12.3c1.5-0.8,3.3-2.6,3.7-3.2c0.2-0.9,0.8-2.7,1.7-4.2
			C71,174,68.3,162.3,68.3,150c0-45.1,36.7-81.7,81.7-81.7c7.8,0,15.4,1.1,22.6,3.2c0.9-1.5,2.7-2.5,4.6-2.2c0.2,0,0.3,0,0.5,0.1
			l2.3,0.5c1.2,0.3,2.3,1,3,2.1c0.7,1.1,0.9,2.3,0.6,3.6l0,0c20.9,9.4,37.1,27.4,44.3,49.4c0.5,0.2,1,0.5,1.4,0.9l2.1,1.8
			c1,0.8,1.5,2,1.6,3.3c0.1,1.3-0.4,2.5-1.2,3.5l-1.2,1.3c0.8,4.7,1.3,9.5,1.3,14.4c0,22.2-8.9,42.3-23.2,57c0,0,0,0,0,0
			c0,0,0,0,0,0.1c-2.4,2.6-7.1,6.5-8.6,7.6c2-4.1,1.3-8.2,0.1-10.6c-0.1,0.2-0.3,0.4-0.5,0.5c-0.1,0.1-0.3,0.3-0.4,0.4
			c-1,0.9-2.1,1.7-3.4,2.3c-0.7,0.3-1.5,0.8-2.2,1.4c-1.2,1.1-1.5,0.9-2.2,1.2c-1.1,0.1-2.8,1.6-3.6,2.5
			C187.5,212.7,187.2,212.9,186.9,213.1 M176.2,258.4c-5.8,1.3-9.7-2.6-10.8-7.3c-1.1-4.7,0.8-10,6.5-11.3c4-0.9,6.6,1.3,6.6,1.3
			l-1.6,2.4c0,0-1.8-1.7-3.8-1.2c-2.6,0.6-3.2,4.2-2.5,7.5c0.8,3.3,2.9,6.4,5.5,5.7c2-0.5,2.9-2.7,2.9-2.7l2.5,1.5
			C181.6,254.4,180.2,257.5,176.2,258.4 M141.2,186.7l0.7,0.2c0,0.5,0.1,1,0.1,1.5c-0.2,0-0.5-0.1-0.8-0.1c0,0,0,0,0,0
			c-0.4-0.3-0.8-0.5-1.2-0.7c-0.4-0.2-0.8-0.4-1.2-0.5c-0.4-0.1-0.7-0.2-1.1-0.3C138.9,186.1,141.2,186.7,141.2,186.7 M141.3,207.9
			c-1.3-0.6-2.6-1.8-3.3-2.6l1.8-0.7c0,0,0.9,1.3,1.9,0.5C141.7,206.1,141.5,207.1,141.3,207.9 M162.5,210.4l-0.9,0.3
			c-0.4-1.4-0.8-3.4-1-4.8c-0.1-1-0.2-2-0.1-2.9l0.2-1.9l0.4,0C161.3,204.9,162,208.4,162.5,210.4 M162.4,199.6l5.8-1.4
			c0.6,1.8,2.2,6.7,2.3,11.5c-0.8,0.4-3,1.2-6.3,1.5C163.8,209.4,162.8,204.8,162.4,199.6 M157.5,175.5c0,0.3-0.3,0.5-0.5,0.4
			c-0.3,0-0.5-0.3-0.4-0.5c0-0.3,0.3-0.5,0.5-0.4C157.4,175,157.6,175.2,157.5,175.5 M162.8,156c0.8,0.4,1.4,1.4,1.2,2.3
			c-0.2,0.7-0.3,1.4-0.5,2c-1.9-1-3.8-1.6-5.8-1.8c-1-0.1-2-0.1-3-0.1c0.2-0.7,0.3-1.4,0.5-2.2c0.2-0.9,1.1-1.7,2-1.6
			c0.3,0,0.6,0,0.9,0.1c0.1,0,0.2,0,0.3,0c0.3,0,0.5,0.1,0.8,0.1c0.1,0,0.2,0,0.4,0.1c0.2,0.1,0.5,0.1,0.7,0.2
			c0.1,0,0.2,0.1,0.3,0.1c0.3,0.1,0.6,0.2,0.8,0.3c0.1,0,0.2,0.1,0.4,0.1C162.1,155.7,162.5,155.8,162.8,156 M160.2,173.7
			c-0.1,0.5-0.5,0.8-1,0.8c-0.5-0.1-0.8-0.5-0.8-1c0.1-0.5,0.5-0.8,1-0.8C159.9,172.7,160.2,173.2,160.2,173.7 M164.7,176
			c-0.1,0.5-0.5,0.8-1,0.8c-0.5-0.1-0.8-0.5-0.8-1c0.1-0.5,0.5-0.8,1-0.8C164.4,175.1,164.7,175.5,164.7,176 M179.1,143.4l-0.1,0.1
			c0-0.1,0-0.2-0.1-0.2C179,143.3,179,143.4,179.1,143.4 M188.8,129.1c-1,0.2-1.9,0.8-2.4,1.7l-1.7,3.3l-0.7,1.3c0,0,0,0-0.1,0
			c0,0,0.3,0.5,0.9,1.1l-0.7,1.2c-1.2-0.1-2.4,0.6-3,1.7l-0.8,1.5c-0.6-0.6-1.1-1.1-1.7-1.6c-0.4-0.3-0.8-0.6-1.3-0.9
			c-0.2-0.1-0.4-0.3-0.7-0.4c-0.2-0.1-0.4-0.3-0.7-0.4c-0.6-1.9-0.2-4,0.2-5.3c0.2-0.6,0.4-1.2,0.7-1.7c0.8-1.6,1.2-3.2,1.3-4.7
			c0.1,0.6,0.1,1.2,0.1,1.8c0,0.6,0,1.1,0,1.7c0,0.6-0.1,1.1-0.2,1.7c-0.2,1.1-0.6,2.2-1,3.3c-0.2,0.5-0.5,1-0.7,1.6
			c-0.2,0.6-0.3,1.1-0.3,1.7c0.1-0.6,0.3-1.1,0.5-1.6c0.2-0.5,0.6-1,0.8-1.5c0.6-1,1.1-2.1,1.4-3.2c0.2-0.6,0.3-1.1,0.5-1.7
			c0.1-0.6,0.2-1.2,0.3-1.8c0.1-1.2,0.1-2.4,0-3.6c-0.2-1.2-0.5-2.4-1-3.6c-0.5-1.1-1.3-2.2-2.2-3.2c0,0,0,0,0,0
			c-0.3-0.6-0.7-1.1-1-1.7c4,1.6,9.9,3.5,18,5.1L188.8,129.1z M193.5,134.6c-0.6,1.1-1.2,2.2-1.7,3.3c-1.6-1.6-3.6-2.7-5.8-3.2
			c0,0-0.1,0-0.1,0h0c0,0-0.1,0-0.1,0c0.6-1.1,1.2-2.2,1.7-3.3c0.1-0.3,0.3-0.5,0.6-0.7c0,0,0.1-0.1,0.1-0.1c0,0,0.1-0.1,0.1-0.1
			c0,0,0.1-0.1,0.1-0.1c0.1,0,0.1-0.1,0.2-0.1c0.1,0,0.1,0,0.2-0.1c0.1,0,0.1,0,0.2-0.1c0,0,0.1,0,0.1,0c0.1,0,0.1,0,0.2,0
			c0,0,0.1,0,0.1,0c0.1,0,0.1,0,0.2,0c0,0,0.1,0,0.1,0c0,0,0,0,0.1,0c0.1,0,0.2,0,0.2,0.1c1,0.4,2,0.9,2.9,1.5
			c0.1,0.1,0.2,0.1,0.2,0.2c0,0,0,0.1,0.1,0.1c0.1,0.1,0.1,0.1,0.1,0.2c0,0,0,0.1,0.1,0.1c0.1,0.1,0.1,0.2,0.1,0.3c0,0,0,0.1,0,0.1
			c0,0.1,0,0.1,0.1,0.2c0,0.1,0,0.1,0,0.2c0,0.1,0,0.1,0,0.2c0,0.1,0,0.1,0,0.2C193.7,133.9,193.6,134.3,193.5,134.6 M186,174
			C186,174,186,173.9,186,174c-0.3-0.2-0.5-0.3-0.7-0.5c0,0-0.1,0-0.1-0.1c-0.4-0.3-0.9-0.5-1.3-0.7c1-1.2,2.1-2.4,3.1-3.5
			c0.4-0.4,1-0.7,1.6-0.7c0,0,0.1,0,0.1,0c0.1,0,0.1,0,0.2,0c0,0,0.1,0,0.1,0c0.1,0,0.1,0,0.2,0c0,0,0.1,0,0.1,0
			c0.1,0,0.2,0.1,0.3,0.1c0.2,0.1,0.3,0.2,0.5,0.3c0.3,0.2,0.6,0.5,1,0.7c0.6,0.5,1.2,1.1,1.7,1.7c0.1,0.1,0.3,0.3,0.4,0.5
			c0.1,0.1,0.1,0.2,0.2,0.3c0,0,0,0.1,0,0.1c0,0.1,0.1,0.1,0.1,0.2c0,0,0,0.1,0,0.1c0.2,0.7,0,1.4-0.4,1.9c-1,1.2-2.1,2.4-3.1,3.5
			c-0.3-0.4-0.6-0.8-0.9-1.2c0,0,0-0.1-0.1-0.1c-0.2-0.2-0.3-0.4-0.5-0.6c0,0,0,0,0-0.1C187.7,175.3,186.9,174.6,186,174
			 M180.1,176.3c0.5-0.6,1.4-0.8,2.2-0.6c0,0,0.1,0,0.1,0c0.1,0,0.2,0.1,0.2,0.1c1.2,0.7,2.3,1.6,3.3,2.6c0.4,0.4,0.7,0.8,1.1,1.2
			c0.1,0.1,0.1,0.2,0.1,0.2c0,0,0,0.1,0,0.1c0.3,0.7,0.2,1.6-0.3,2.2c-0.5,0.5-1,1.1-1.4,1.6c-0.2-0.4-0.5-0.7-0.7-1.1
			c-0.2-0.2-0.3-0.5-0.5-0.7c-0.1-0.1-0.2-0.3-0.3-0.4c-0.1-0.1-0.2-0.2-0.3-0.4c-0.1-0.1-0.2-0.2-0.4-0.4c-0.1-0.1-0.2-0.2-0.4-0.4
			c-0.2-0.2-0.4-0.4-0.6-0.5c-0.1-0.1-0.3-0.2-0.4-0.3c-0.1-0.1-0.3-0.2-0.4-0.3c-0.1-0.1-0.3-0.2-0.4-0.3c-0.1-0.1-0.3-0.2-0.4-0.3
			c-0.2-0.2-0.5-0.3-0.7-0.4c-0.4-0.2-0.7-0.4-1.1-0.6C179.1,177.4,179.6,176.8,180.1,176.3 M186.4,147.5c-0.2-0.2-0.4-0.3-0.6-0.5
			c0,0-0.1-0.1-0.1-0.1c-0.2-0.1-0.4-0.3-0.6-0.4c0,0-0.1,0-0.1-0.1c-0.9-0.6-1.8-1.1-2.8-1.5c0,0-0.1,0-0.1,0
			c-0.2-0.1-0.5-0.2-0.7-0.3c0,0-0.1,0-0.1,0c-0.2-0.1-0.5-0.1-0.7-0.2c0,0,0,0,0,0c-0.2-0.1-0.5-0.1-0.7-0.2
			c0.7-1.4,1.5-2.8,2.2-4.2c0.3-0.5,0.8-0.9,1.4-1c0,0,0,0,0,0c0.1,0,0.2,0,0.3,0c0,0,0,0,0.1,0c0.1,0,0.2,0,0.2,0c0,0,0,0,0.1,0
			c0.1,0,0.2,0,0.3,0.1c1.5,0.5,2.9,1.3,4.2,2.2c0,0,0,0,0,0c0.1,0.1,0.1,0.1,0.2,0.2c0,0,0,0.1,0.1,0.1c0,0,0.1,0.1,0.1,0.1
			c0,0,0,0.1,0.1,0.1c0,0.1,0,0.1,0.1,0.2c0,0,0,0.1,0,0.1l0,0c0.2,0.5,0.2,1.2-0.1,1.7c-0.7,1.4-1.5,2.8-2.2,4.2
			C186.8,147.8,186.6,147.6,186.4,147.5C186.4,147.5,186.4,147.5,186.4,147.5 M169.2,164.3c0.7-1.4,1.5-2.8,2.2-4.2
			c0.3-0.5,0.8-0.9,1.4-1c0,0,0.1,0,0.1,0c0.1,0,0.1,0,0.2,0c0,0,0.1,0,0.1,0c0.1,0,0.1,0,0.2,0c0,0,0.1,0,0.1,0
			c0.1,0,0.2,0,0.3,0.1c0.2,0.1,0.4,0.1,0.6,0.2c0.4,0.1,0.7,0.3,1.1,0.5c0.2,0.1,0.4,0.2,0.5,0.3c0.7,0.4,1.4,0.8,2,1.3
			c0,0,0,0,0,0c0.1,0.1,0.2,0.1,0.2,0.2c0,0,0,0,0.1,0.1c0,0.1,0.1,0.1,0.1,0.2c0,0,0,0.1,0,0.1c0,0.1,0.1,0.2,0.1,0.3c0,0,0,0,0,0
			c0.2,0.5,0.2,1.2-0.1,1.7c-0.7,1.4-1.5,2.8-2.2,4.2c-0.2-0.2-0.4-0.3-0.5-0.5c-0.2-0.2-0.4-0.3-0.6-0.5c0,0-0.1,0-0.1-0.1
			c-0.2-0.2-0.4-0.3-0.6-0.4c0,0,0,0-0.1,0c-0.9-0.6-1.8-1.1-2.8-1.5c0,0,0,0-0.1,0c-0.2-0.1-0.5-0.2-0.7-0.3c0,0-0.1,0-0.1,0
			C170.2,164.6,169.7,164.4,169.2,164.3 M170.8,168.6c1,0.5,2,1.1,2.9,1.8c0,0,0,0,0.1,0c0,0,0.1,0.1,0.1,0.1c0,0,0.1,0.1,0.1,0.1
			l0,0c0.5,0.6,0.6,1.6,0.2,2.2c-0.3,0.6-0.7,1.3-1,1.9c-0.6-0.6-1.4-1.2-2.1-1.7c-0.1-0.1-0.2-0.1-0.3-0.2
			c-0.2-0.1-0.3-0.2-0.5-0.3c-0.1-0.1-0.3-0.2-0.4-0.2c-0.2-0.1-0.5-0.3-0.8-0.4c-0.2-0.1-0.3-0.2-0.5-0.2c-0.1-0.1-0.3-0.1-0.4-0.2
			c-0.2-0.1-0.3-0.1-0.5-0.2c-0.1-0.1-0.3-0.1-0.4-0.2c-0.3-0.1-0.6-0.2-0.8-0.3l0,0c-0.4-0.1-0.8-0.2-1.2-0.3
			c0.3-0.6,0.7-1.3,1-1.9c0.4-0.7,1.2-1.2,2-1.1c0,0,0,0,0.1,0c0.1,0,0.2,0,0.3,0.1C169.4,167.9,170.1,168.2,170.8,168.6
			 M178.1,180.3L178.1,180.3l0,0.1c-2.4-1.8-4.8-3-6.3-3.6c-0.3-0.1-0.6-0.3-0.8-0.4l0.2-0.4l2.3,0.7l0.7-1.4l1-1.9
			c0.7-1.2,0.4-2.9-0.7-3.9l1.9,0.3l0.7-1.4l2.2-4.2c0.6-1.1,0.4-2.5-0.3-3.4l1.3-2.5c1.1,2.1,2.5,4.3,3.8,5.2
			c1.8,1.3,3,2.3,3.7,3.7c-0.7,0.1-1.3,0.5-1.8,1l-2.6,2.9l-0.6,0.7l-1,1.1l1,1.7c-0.1-0.1-0.2-0.1-0.3-0.2
			c-1.2-0.4-2.7-0.1-3.5,0.9l-1.4,1.6l-1,1.1L178.1,180.3z M208.2,157.4c-1,1.2-2.1,2.4-3.1,3.5c-0.3-0.4-0.6-0.8-0.9-1.2
			c0,0,0-0.1-0.1-0.1c-0.2-0.2-0.3-0.4-0.5-0.6c0,0,0,0,0-0.1c-0.7-0.8-1.5-1.5-2.4-2.1c0,0,0,0-0.1,0c-0.2-0.1-0.4-0.3-0.6-0.4
			c0,0-0.1,0-0.1-0.1c-0.2-0.1-0.4-0.3-0.7-0.4c-0.2-0.1-0.4-0.2-0.6-0.3c1-1.2,2.1-2.4,3.1-3.5c0.4-0.4,1-0.7,1.6-0.7
			c0,0,0.1,0,0.1,0c0.1,0,0.1,0,0.2,0c0,0,0.1,0,0.1,0c0.1,0,0.1,0,0.2,0c0,0,0.1,0,0.1,0c0.1,0,0.2,0.1,0.3,0.1
			c1.4,0.8,2.6,1.9,3.6,3.2c0.1,0.1,0.1,0.2,0.2,0.3c0,0,0,0.1,0,0.1c0,0.1,0.1,0.1,0.1,0.2c0,0,0,0.1,0,0.1c0,0.1,0,0.2,0.1,0.3
			c0,0,0,0,0,0C208.7,156.4,208.6,157,208.2,157.4 M206.9,147.7c0.8-0.9,1.6-1.8,2.4-2.8c0.2-0.2,0.4-0.4,0.7-0.5
			c0.1,0,0.1-0.1,0.2-0.1c0,0,0.1,0,0.1,0c0.1,0,0.1,0,0.2-0.1c0,0,0,0,0,0c0.1,0,0.3,0,0.4-0.1c0,0,0.1,0,0.1,0s0.1,0,0.1,0
			c0.1,0,0.1,0,0.2,0c0,0,0.1,0,0.1,0c0.1,0,0.1,0,0.2,0c0,0,0.1,0,0.1,0.1c0,0,0,0,0.1,0c0.1,0,0.1,0.1,0.2,0.1
			c0.2,0.2,0.5,0.3,0.7,0.5c0.6,0.5,1.2,1.1,1.8,1.7h0c0.1,0.1,0.1,0.2,0.2,0.3c0,0,0,0.1,0,0.1c0,0.1,0.1,0.1,0.1,0.2
			c0,0,0,0.1,0,0.1c0,0.1,0.1,0.2,0.1,0.3c0,0,0,0.1,0,0.1c0,0.1,0,0.1,0,0.2c0,0.1,0,0.1,0,0.2c0,0.1,0,0.1,0,0.2
			c0,0.1,0,0.1,0,0.2c-0.1,0.4-0.2,0.7-0.5,1c-0.8,0.9-1.6,1.8-2.4,2.8C210.8,150.3,209,148.7,206.9,147.7 M195.9,114.4l1.8-3.3
			c0.5-1,1.6-1.5,2.6-1.4c0.3,0,0.6,0.1,0.9,0.3l2.4,1.3c1.3,0.7,1.7,2.2,1.1,3.5l-1.8,3.3C199.4,115.5,195.9,114.4,195.9,114.4
			 M194.6,132.2l4.4-8.3c3.3,3.5,9.8,9.3,18.2,12.4l-6,6.7c-1,0-2.1,0.4-2.8,1.1l-2.4,2.8l-1,1.1c0,0,0,0-0.1,0c0,0,0.2,0.5,0.7,1.3
			l-0.9,1.1c-1.1-0.3-2.5,0-3.3,0.9l-3.1,3.5l-1,1.1l0.1,0.1c0,0-0.1,0-0.1,0c0,0,0.2,0.7,0.9,1.7l-8.4,9.5c-0.8-2-2.3-3.4-4.5-4.9
			c-1.2-0.9-2.7-3.3-3.8-5.6l2.9-5.4c0.1,0.4,0.1,0.8,0.2,1.2c0.2,1.9,0,3.8-0.4,5.7c0.7-1.8,1.2-3.7,1.3-5.7c0-0.9,0-1.9-0.2-2.8
			l0.2-0.4c0.6,0.1,1.2,0.3,1.9,0.4c0,0,0,0-0.1-0.1l0.1,0.1l0.7-1.4l2.2-4.2c0.6-1.1,0.4-2.5-0.3-3.4l0.7-1.4
			c0.4,0.1,0.8,0.2,1.3,0.3c0,0,0,0,0,0l0,0l0.7-1.4l1.7-3.3C195,134.2,195,133.1,194.6,132.2 M171.7,114l1.2,0.9l-0.4,1.7
			c1,1,1.8,2.2,2.4,3.4c0.7,1.4,1.2,3,1.2,4.6c0,0.8-0.1,1.6-0.3,2.4c-0.1,0.4-0.2,0.8-0.4,1.2l-0.2,0.5l-0.2,0.5
			c-0.6,1.4-1.2,2.8-1.4,4.1c-0.1,0.3-0.1,0.7-0.1,1c0,0.3,0,0.7,0,1c0,0.7,0.2,1.4,0.4,2c0.1,0.3,0.3,0.7,0.4,1
			c0.2,0.3,0.3,0.7,0.5,1c0.3,0.7,0.7,1.3,1.1,2c0.8,1.3,1.4,2.8,2,4.2c0.5,1.5,1,2.9,1.2,4.5c-0.5-1.4-1.2-2.8-1.9-4.1
			c-0.7-1.3-1.5-2.6-2.3-3.9c-0.4-0.6-0.9-1.3-1.3-2c-0.2-0.3-0.4-0.7-0.6-1c-0.2-0.4-0.4-0.7-0.5-1.1c-0.6-1.5-0.8-3.3-0.5-4.9
			c0.3-1.6,0.9-3.1,1.6-4.5l0.3-0.5c0.1-0.2,0.2-0.3,0.2-0.5c0.2-0.3,0.3-0.6,0.4-1c0.2-0.7,0.3-1.4,0.4-2.1
			c0.1-1.4-0.2-2.9-0.7-4.3c-0.4-1.3-1.1-2.5-1.8-3.6l-6.2,27.5c1.6,0.2,4.2,0.8,6.9,2.8c1.4,1.4,2.7,3.2,3.6,4.5l-3.4,6.4
			c-1.2-0.1-2.4,0.6-3,1.7l-2.9,5.4l1.3,1.5c-0.1,0-0.1,0-0.2,0c-0.5-0.1-1.7-0.1-3,1.1c-0.2,0.2-0.3,0.4-0.4,0.6l-1,1.9l-0.7,1.4
			l1.8,1.6l0.1,0l-0.1,0.1l-2.9-1.7l1.9-3.8c0.9-1.4,1.7-1.9,1.7-1.9l2.3-5.1c0.1-0.2,0.1-0.4,0.1-0.5c-1-5.3-2.9-9.3-3.3-10.1
			l-0.6,2.8l-0.2,1.1c1,0.7,2.6,2.2,1.9,5l-0.5,2.4l-0.4,1.7l-3.1,0.4l-1.6,7l-0.3-0.2c-0.2-0.2-0.4-0.3-0.7-0.5l1.6-7.4l3.2-0.4
			l0,0v0l0,0c0,0,0,0,0,0l0.3-1.5l0.5-2c0.3-1.4-0.5-3-1.8-3.6c-0.1,0-0.2-0.1-0.3-0.1l-0.3-0.1L171.7,114z M170.9,100.7
			c0.1,0,0.1,0,0.2,0c0.3,0.1,0.6,0.1,0.9,0.2c0.1,0,0.1,0,0.2,0c0.3,0.1,0.6,0.2,0.9,0.3c0,0,0.1,0,0.1,0c0.3,0.1,0.6,0.2,0.9,0.4
			c0.8,0.4,1.4,1.4,1.2,2.3c-0.3,1.5-0.7,3-1,4.5c-1.6-0.8-3.3-1.3-5-1.5c-0.9-0.1-1.8-0.1-2.7-0.1c0.3-1.6,0.7-3.2,1-4.8
			c0.2-0.8,0.9-1.5,1.6-1.6c0.1,0,0.2,0,0.3,0c0.2,0,0.4,0,0.5,0.1C170.3,100.6,170.6,100.6,170.9,100.7 M173.3,76.7l0.7-3.3
			c0-0.1,0-0.2,0.1-0.2c0,0,0-0.1,0-0.1c0-0.1,0-0.1,0.1-0.2c0,0,0-0.1,0-0.1c0,0,0-0.1,0.1-0.1c0,0,0-0.1,0.1-0.1
			c0,0,0-0.1,0.1-0.1c0,0,0-0.1,0.1-0.1c0,0,0.1-0.1,0.1-0.1c0,0,0-0.1,0.1-0.1c0,0,0.1-0.1,0.1-0.1c0,0,0.1-0.1,0.1-0.1
			c0,0,0.1-0.1,0.1-0.1c0,0,0.1,0,0.1-0.1c0,0,0.1-0.1,0.1-0.1c0,0,0.1,0,0.1-0.1c0,0,0.1,0,0.1-0.1c0,0,0.1,0,0.1-0.1
			c0,0,0.1,0,0.1-0.1c0,0,0.1,0,0.1,0c0,0,0.1,0,0.1,0c0,0,0.1,0,0.1,0c0,0,0.1,0,0.1,0c0,0,0.1,0,0.1,0c0,0,0.1,0,0.1,0
			c0,0,0.1,0,0.1,0c0.1,0,0.1,0,0.2,0c0,0,0.1,0,0.1,0c0.1,0,0.1,0,0.2,0c0,0,0,0,0.1,0c0,0,0,0,0,0c0.1,0,0.2,0,0.3,0l2.3,0.5
			c0.2,0,0.3,0.1,0.5,0.2c0.2,0.1,0.5,0.2,0.6,0.4c0.5,0.4,0.8,1.1,0.9,1.7c0,0.3,0,0.5-0.1,0.8l-0.7,3.3
			C177.2,76.4,173.3,76.7,173.3,76.7 M174,90.9c0.2,0,0.4,0.1,0.5,0.2c0.1,0,0.2,0,0.3,0.1c0.3,0.1,0.5,0.2,0.8,0.3
			c0.1,0,0.2,0.1,0.3,0.2c0,0,0.1,0,0.1,0.1c0.1,0,0.1,0.1,0.2,0.2c0,0,0.1,0,0.1,0.1c0.1,0.1,0.2,0.2,0.2,0.3
			c0.4,0.5,0.6,1.2,0.4,1.8c-0.3,1.2-0.5,2.3-0.8,3.5c-0.2-0.1-0.5-0.2-0.7-0.3c0,0,0,0,0,0c-0.2-0.1-0.4-0.2-0.6-0.2c0,0,0,0,0,0
			c-1-0.4-2-0.6-3-0.7c-0.8-0.1-1.6-0.1-2.3-0.1c0.3-1.2,0.5-2.5,0.8-3.7c0.1-0.6,0.5-1.1,1-1.4c0.2-0.1,0.4-0.2,0.5-0.2
			c0,0,0,0,0,0c0.1,0,0.2,0,0.3,0c0,0,0,0,0,0c0.1,0,0.2,0,0.3,0c0.2,0,0.3,0,0.5,0.1c0.1,0,0.2,0,0.3,0.1c0.2,0,0.3,0.1,0.5,0.1
			C173.8,90.9,173.9,90.9,174,90.9 M154.1,171.9c0-0.3,0.3-0.5,0.5-0.4c0.3,0,0.5,0.3,0.4,0.5c0,0.3-0.3,0.5-0.5,0.4
			C154.3,172.5,154.1,172.2,154.1,171.9 M151.4,174.3c0.1-0.7,0.8-1.3,1.5-1.2c0.7,0.1,1.3,0.8,1.2,1.5c-0.1,0.7-0.7,1.3-1.5,1.2
			C151.8,175.7,151.3,175.1,151.4,174.3 M148.8,172.1c0-0.4,0.4-0.6,0.7-0.6c0.4,0,0.6,0.4,0.6,0.7c0,0.4-0.4,0.6-0.7,0.6
			C149,172.7,148.7,172.4,148.8,172.1 M147.2,175.4c0-0.3,0.3-0.5,0.5-0.4c0.3,0,0.5,0.3,0.4,0.5c0,0.3-0.3,0.5-0.5,0.4
			C147.4,175.9,147.2,175.6,147.2,175.4 M146.1,178.5c0.6-1.4,2.1-2.3,3.7-2.1c1.1,0.1,2,0.7,2.5,1.6c0.5-0.4,1.1-0.6,1.7-0.5
			c0.5,0.1,0.9,0.2,1.2,0.5c0.5-0.5,1.1-0.8,1.9-0.7c0.7,0.1,1.3,0.5,1.7,1.1c1-0.7,2.3-1,3.6-0.7c1.6,0.5,2.7,1.9,2.9,3.5
			c0,0.7-0.1,1.3-0.3,1.8c-0.4,1-0.4,2.1-0.1,3.2c0.1,0.2,0.1,0.4,0.1,0.4c0,0,0,0,0,0l0,0c0.1,0.2,0.1,0.5,0,0.7
			c-0.1,1-1.4,1.6-2.3,1.8l-0.8,7.7l6.3-1.6c0.4-0.1,0.7-0.1,1.1,0c0.2,0.1,0.4,0.2,0.6,0.4c0.9-0.5,1.8-1.3,2.4-2.2
			c0.9-1.2,2.1-2.5,3.9-3.4l7.8-3.4c-0.5-0.9-0.6-1.1-1.3-1.9l0.3-0.3l2.1,1.2l1-1.1l1.4-1.6c0.9-1.1,1-2.8,0.3-3.9l1.8,0.8l1-1.2
			l1-1.1c1.7,2.7,3.6,5.3,5,6.8c2.4,2.8,2.3,5.6,2,7.1c-0.1-0.2-0.2-0.3-0.4-0.5c-0.6-0.8-1.2-1.6-2-2.2c0.5,0.9,0.9,1.7,1.4,2.5
			c0.5,0.8,0.9,1.7,1.2,2.6c0.7,1.7,1.2,3.6,1,5.3c-0.1,0.9-0.5,1.7-1,2.3c-0.2,0.2-0.3,0.3-0.4,0.5l-0.5,0.5l-1.1,1
			c-0.3,0.3-0.6,0.4-1,0.5c-0.5,0.1-1,0.3-1.5,0.5c-0.5,0.2-0.9,0.5-1.4,0.7c-0.2,0.1-0.4,0.3-0.6,0.5c-0.1,0.1-0.2,0.2-0.3,0.2
			l-0.3,0.2c-0.3,0.3-0.7,0.5-1,0.6c0,0-0.1,0-0.1,0l-0.2,0c-0.1,0-0.3,0.1-0.4,0.1c-0.3,0.1-0.5,0.2-0.8,0.3
			c-1,0.4-1.8,1.1-2.6,1.8c-0.4,0.4-0.7,0.8-1,1.2l-0.1,0.2c0,0-0.1,0.1-0.1,0.1c-0.1,0.1-0.1,0.1-0.2,0.2c-0.1,0-0.1,0.1-0.2,0.1
			c-0.1,0-0.2,0.1-0.2,0.1c-0.7,0.3-1.6,0.4-2.5,0.3c-0.9-0.1-1.8-0.3-2.7-0.5c-0.9-0.2-1.8-0.5-2.7-0.8c-1.7-0.6-3.5-1.3-5.1-2.1
			c-0.2-3.1-1-6.2-1.6-8.3l-0.3-0.8c0.3-0.1,0.5-0.1,0.8-0.2c0.6-0.2,1.1-0.4,1.6-0.8c0.5-0.3,1-0.7,1.4-1.2
			c0.1-0.1,0.2-0.2,0.3-0.4c0.1-0.1,0.2-0.3,0.3-0.4c0.2-0.2,0.3-0.4,0.5-0.6c0.6-0.8,1.3-1.5,2.1-2.1c0.8-0.6,1.7-1.1,2.6-1.5
			c0.9-0.4,1.9-0.8,2.9-1.1c0.5-0.2,1-0.3,1.5-0.5c0.5-0.2,1-0.3,1.5-0.5c1-0.3,2-0.7,3-1.2c1-0.4,2-0.9,2.9-1.4
			c-1.1,0.1-2.2,0.2-3.2,0.4c-1.1,0.2-2.3,0.5-3.4,0.8c0,0,0,0,0,0c0,0-3.6,1-3.6,1c-0.8,0.3-1.6,0.6-2.4,0.9c-1,0.4-2,1-3,1.6
			c-1,0.7-1.8,1.5-2.5,2.4c-0.2,0.2-0.3,0.5-0.5,0.7c-0.1,0.1-0.1,0.2-0.2,0.3c-0.1,0.1-0.1,0.2-0.2,0.3c-0.3,0.3-0.6,0.6-1,0.9
			c-0.4,0.3-0.8,0.5-1.3,0.7c-0.2,0.1-0.5,0.2-0.7,0.3c-0.2-0.5-0.8-0.9-1.4-0.7l-6.4,1.5l0,0c-0.5,0.1-0.9,0.6-0.9,1.1
			c0,0.1,0,0.2,0,0.2l-0.2,0l1.4-16.9l-0.3-0.2c-0.1,0-1.9-1-3.9-1.3h0c-0.3,0-0.6,0.2-0.6,0.5c0,0.3,0.2,0.6,0.5,0.6
			c1.3,0.2,2.6,0.7,3.2,1l-1.6,19.6c-0.1,1.1,0,2.2,0.1,3.2c0.2,1.5,0.6,3.6,1.1,5.1c0.2,0.5,0,1.1-0.3,1.4c-0.7,0.6-2,1.4-4.5,1.5
			c0,0-11.2-0.2-13.1-1.6c-0.7-0.5-0.9-1.6-0.6-2.5c0.5-1.5,1.2-3.7,1.2-6.2c0-0.5,0-17.7,0-17.7l-0.3-3.6c0.6-0.1,1.4-0.2,2.2-0.3
			c0.3,0,0.5-0.3,0.6-0.5c0-0.4-0.3-0.6-0.6-0.6c-1.2,0.1-2.1,0.3-2.9,0.5l-0.5,0.1l0.3,3.6c-0.7-0.1-1.3-0.2-1.8-0.2
			c-0.2-0.6-0.4-1.4-0.4-2.3c0-2.2,1.5-4.3,3.6-4.7C144.3,177.8,145.3,178,146.1,178.5 M143.2,174.6c0.2-0.3,0.5-0.5,0.9-0.5
			c0.5,0.1,0.8,0.5,0.8,1c-0.1,0.5-0.5,0.8-1,0.8c0,0-0.1,0-0.1,0c0.1,0,0.1-0.1,0.1-0.1l0.2-0.1L143.2,174.6z M124.8,186.7
			c-1,1.3-1.8,2.7-1.8,2.7c-0.2-0.3-0.5-0.7-0.9-1.3c0.7-0.4,1.4-0.7,2.1-1.1C124.4,186.9,124.6,186.8,124.8,186.7 M117.2,180.7
			c1.1-0.5,2.3-1,3.4-1.6c1.4,2.1,2.6,3.8,3.7,5.1c-1.2,0.6-2.5,1.1-3.7,1.7C119.5,184.2,118.3,182.3,117.2,180.7 M112.8,194.1
			l5.9-0.5c0.4,1.3,1.2,5.1,0.6,11.4c-0.8,0.3-2.9,0.8-6.3,0.6C112.8,204.1,112.3,199.9,112.8,194.1 M110.6,192.1
			C110.6,192.1,110.6,192.1,110.6,192.1c-0.7-0.4-1.4-0.8-2.2-1.1c-0.2-0.1-0.4-0.2-0.6-0.2c0.8-0.7,2.2-1.6,3.9-1.4
			c1,0.1,1.8,0.2,2.4,0.3c0.3-0.1,0.7,0.2,0.9,0.3c0.8,0.6,1.6,1.3,2.2,2.1l-2.7,0.1l-2.5,0.2C111.4,192.5,111,192.3,110.6,192.1
			 M102.8,164.2l0.4,0.4c0,0,11.2,16.3,11.7,23.6c0,0,0,0,0,0l0,0c0,0,0-0.3-0.2-0.7c-0.1-0.3-0.2-0.6-0.3-0.9c-0.8-2-3-5.3-8.4-6.4
			c0,0,4.8,1.8,7.2,7.1c0.1,0.2,0.2,0.5,0.3,0.8c-0.5-0.1-1.1-0.1-1.7-0.2c-2.8-0.4-4.9,1.5-5.8,2.4c0,0-0.1,0-0.1,0
			c-0.8-0.2-1.7-0.2-2.6-0.1l-0.7,0.1c-0.2,0-0.4,0.1-0.7,0.2l-1,0.4c-0.7,0.2-1.4,0.3-2.1,0.4c-1.5,0.1-3,0-4.5-0.2
			c-0.7-0.1-1.5-0.3-2.2-0.4l-0.5-0.1l-0.3-0.1l-0.3-0.1c-0.4-0.1-0.8-0.2-1.2-0.3c-1.6-0.4-3.1-0.7-4.8-0.9c-0.8-0.1-1.6-0.1-2.5,0
			c-0.9,0.1-1.7,0.4-2.5,0.8c-1.5,0.8-2.7,2.2-3.1,3.8c1.4-1,2.5-1.9,3.7-2.5c0.6-0.3,1.3-0.5,2-0.5c0.7,0,1.5,0,2.2,0.1
			c1.5,0.2,3,0.5,4.5,0.9c0.4,0.1,0.7,0.2,1.1,0.3l0.3,0.1l0.3,0.1c0.2,0.1,0.4,0.1,0.6,0.2c0.8,0.2,1.6,0.4,2.4,0.5
			c1.6,0.3,3.2,0.4,4.9,0.3c0.8,0,1.7-0.2,2.5-0.5l0.6-0.2l0.3-0.1l0.2-0.1c0.2,0,0.3-0.1,0.5-0.2l0.5-0.1c1.3-0.2,2.8,0.1,4.1,0.6
			c0.7,0.3,1.4,0.6,2,0.9c0.3,0.2,0.7,0.4,1,0.6l0.5,0.3c-0.5,5.4-0.1,9.3,0.1,11.1c-1.1,0.9-3.3,1-4.3,1c-0.3,0-0.6,0.1-0.7,0.4
			c-2.7,4.9-6.1,3.6-6.4,3.4c-1.2-0.6-2.8-0.9-4.8-0.7c-1.4,0.1-2.8,0.7-4,1.6c-1.5,1.1-6.8,4.5-11.5,1.4c-1.9-1.2-4.2-3.1-6.8-5.5
			c-2.1-2-4.1-3.3-4.9-3.8c-0.5-3.8,2.2-8.4,3.8-9.3c1.7-1,4.8-3.7,5-4.8c0.1-0.5,0.7-2.7,1.7-4c0.4-0.6,2-1.6,3.7-2.6
			c1.8-1.1,3.8-2.4,5.5-3.8c2.9-2.4,3.1-2.9,4.3-5.5c0.3-0.6,0.6-1.3,1-2.2C94.8,167.4,101.2,164.8,102.8,164.2 M154.6,118.9
			c0.1-0.3,0.5-0.4,0.7-0.2c0.2,0.3,0.4,0.6,0.6,1c-0.5,0.4-1.3,1.4-1,2.1c0,0,1.3,2.6-0.5,3.3l-0.3,0.1c-0.2,0-0.3,0.2-0.2,0.4
			c0,0.2,0.2,0.3,0.4,0.2c0.7-0.3,2-1.1,1.7-3c-0.2-1,0.1-1.4,0.5-1.5c0.1,0.2,0.1,0.4,0.2,0.6c-0.3,1.6-0.7,3.4-1.5,5.3
			c-1.3,0.3-2.6,0.1-2.6,0.1L154.6,118.9z M135.7,150.1c0-0.1-0.2-0.2-0.3-0.2c-3.7-0.2-6.6-1.4-6.6-1.4l-0.2-5.6
			c2.2,2.4,4.8,3.8,6.2,4.4c0.6,0.3,1.3,0.3,2,0.1c3.6-1.4,5.9-5.6,5.9-5.6l0,5.4c-1.8,1.3-4.2,2.1-4.9,2.3c-0.1,0-0.2,0.2-0.2,0.3
			l-0.6,4.8L135.7,150.1z M130.4,163.2c0.9-0.6,1.7-1.1,2.3-1.5c1,1.5,2.1,3,3.1,4.3l0.5,0.7c-0.5,0.3-1.4,1-2.6,1.8
			C132.8,167,131.6,165.2,130.4,163.2 M127.1,175.8c1.6,2.3,2.9,4,3.9,5c-1.4,0.8-2.8,1.5-4.2,2.2c-1-1.1-2.3-2.8-3.7-5
			C124.4,177.2,125.8,176.5,127.1,175.8 M118.3,170.1c1.3-0.6,2.6-1.3,3.9-2c1.2,2,2.3,3.9,3.4,5.5c-1.3,0.7-2.6,1.4-4,2.1
			C120.6,174,119.5,172.1,118.3,170.1 M114.3,153.8c0.6,1,1.3,2.4,2.1,3.9c-1.3,0.7-2.6,1.4-3.9,2c-1-1.9-1.8-3.3-2.2-4.1
			C111.7,155,113.1,154.4,114.3,153.8 M118.8,156.5c-0.8-1.5-1.5-2.9-2.1-3.9c1-0.6,2.3-1.3,3.6-2c0.6,1.1,1.3,2.4,2.1,3.9
			C121.2,155.1,120,155.8,118.8,156.5 M120.9,165.7c-1.3,0.7-2.6,1.4-3.9,2c-1-1.8-2.1-3.7-3.2-5.6c1.3-0.6,2.6-1.3,3.9-2
			C118.8,162.1,119.9,164,120.9,165.7 M123.6,156.8c1.1,2,2.1,3.8,3.2,5.6c-1.2,0.7-2.4,1.4-3.6,2.1c-1-1.7-2.1-3.6-3.2-5.6
			C121.3,158.2,122.5,157.5,123.6,156.8 M124.6,153c-0.8-1.4-1.5-2.7-2-3.8c0.2-0.1,0.4-0.2,0.5-0.2c0,0,1.1-0.9,2.3,0.7
			c0,0,0.4,0.8,1.2,2C125.9,152.1,125.3,152.5,124.6,153 M131.5,170c-1.2,0.7-2.4,1.5-3.6,2.2c-1-1.6-2.1-3.4-3.4-5.5
			c1.2-0.7,2.4-1.4,3.6-2.1C129.4,166.6,130.5,168.5,131.5,170 M125.9,155.3c0.7-0.5,1.4-0.9,1.9-1.3c0.9,1.6,2.1,3.4,3.3,5.4
			c-0.6,0.4-1.3,0.9-2.1,1.4C128.1,159.1,127,157.3,125.9,155.3 M119.6,115.8c0.1,1.9,0.1,3.8-0.2,5.7c-0.3,1.9-1,3.8-2,5.5
			c-0.3,0.4-0.6,0.8-0.9,1.2c-0.3,0.3-0.5,0.7-0.7,1.1c-0.4,0.8-0.8,1.6-1,2.4c-0.2,0.9-0.4,1.7-0.4,2.6c-0.1,0.9-0.1,1.8,0,2.7
			c0.2,1.8,0.6,3.6,1.3,5.3c0.7,1.7,1.6,3.3,3,4.7c-1.5-1.1-2.7-2.7-3.6-4.4c-0.4-0.8-0.8-1.7-1.1-2.7c-0.3-0.9-0.5-1.9-0.7-2.8
			c-0.3-1.9-0.3-3.9,0.2-5.8c0.2-1,0.6-1.9,1-2.8c0.2-0.4,0.5-0.9,0.8-1.3c0.3-0.4,0.5-0.7,0.7-1.1c0.9-1.5,1.5-3.2,1.9-5
			c0.4-1.8,0.4-3.6,0.5-5.5c0-0.5,0-0.9,0.1-1.4c0-0.5,0.1-1,0.2-1.5c0.2-0.9,0.5-1.9,0.8-2.8c0.3-0.9,0.7-1.8,1.2-2.6
			c0.4-0.8,0.9-1.7,1.5-2.4c-0.5,0.8-0.8,1.7-1.2,2.5c-0.3,0.9-0.6,1.8-0.9,2.6c-0.2,0.9-0.4,1.8-0.5,2.7c0,0.2,0,0.4-0.1,0.7
			c0,0.2,0,0.4,0,0.7C119.6,114.9,119.6,115.4,119.6,115.8 M107.2,162.2l-0.6-1.3c-0.3-0.7-0.9-1.7-1.4-1.9c-0.2-0.1-0.3,0-0.3,0.2
			l-0.2,2l-1.1,0.7l0.4-3c0-0.3,0.2-0.5,0.4-0.6l0.2-0.1c0,0,1.4-0.6,3.4-1.5c0.4,0.8,1.2,2.2,2.2,4.2
			C109.1,161.4,108.1,161.8,107.2,162.2 M109.4,167.1c-0.2-0.4-0.3-0.7-0.5-1.1l-0.6-1.4c1-0.4,2-0.9,3.1-1.4c1.1,2,2.1,3.9,3.2,5.6
			c-1.1,0.5-2.2,1-3.3,1.5c-0.3-0.6-0.7-1.2-1-1.9c0,0,0-0.1-0.1-0.1c-0.1-0.1-0.1-0.2-0.2-0.3c0,0,0,0,0,0
			C109.8,167.8,109.6,167.4,109.4,167.1 M112.5,172.8C112.5,172.8,112.5,172.8,112.5,172.8C112.5,172.8,112.4,172.8,112.5,172.8
			c1.1-0.5,2.2-1,3.4-1.5c1.2,2,2.3,3.9,3.3,5.5c-1.2,0.5-2.3,1.1-3.5,1.6c-0.3-0.4-0.5-0.8-0.7-1.1c-0.1-0.1-0.1-0.2-0.2-0.3
			c0,0,0,0,0,0c-0.7-1.2-1.5-2.5-2.2-3.8c0,0,0,0,0,0C112.6,173,112.5,172.9,112.5,172.8 M133.5,179.4l-0.3-0.3
			c-0.9-0.8-2.2-2.4-3.7-4.6c1.2-0.7,2.4-1.4,3.6-2.2c1.4,2,2.6,3.5,3.6,4.4c-0.1,0.3-0.1,0.6-0.2,0.9
			C135.4,178.2,134.5,178.8,133.5,179.4 M135.5,181.3c0.1-0.1,0.2-0.2,0.4-0.2l0,0.7L135.5,181.3z M135.9,182.1l0,0.2
			c0,0-0.1,0-0.4-0.1L135.9,182.1z M149.5,128c0.5-0.5,0.9-1.1,1.3-1.6l0.9-1.3c0,0-0.5,11.7-10.6,16.3c-8.1,4.5-15.4-3.2-15.4-3.2
			c-3.6-3-5.3-7.5-6-11.9c0.1,0,0.1,0,0.2-0.1c0.3,0.4,0.6,0.8,0.9,1.2c0.8,1,1.6,1.9,2.5,2.7c0.2,0.2,0.4,0.3,0.6,0.5l0-0.1
			c-0.2-0.8-0.6-1.5-1.1-2.2c-0.4-0.5-0.7-1-1-1.5c-0.3-0.5-0.6-1-0.8-1.5c-0.2-0.4-0.4-0.8-0.6-1.2c0.7-3.1,0.9-5.8,0.8-8.1
			c-0.1-2.5,0.6-4.9,1.9-7c1.3-2.2,2.3-3.9,3.2-5.3c0.5-0.9,1.4-1.6,2.5-1.8l7.4-1.2c2.2,3,5.2,6.4,9,9.5c-0.1,0-0.3,0.1-0.4,0.1
			l2.4,1.4c-0.9,0.2-1.9,0.5-2.7,1.1c-0.4,0.3-0.8,0.6-1.2,1c-0.4,0.4-0.7,0.8-0.9,1.3l0.1,0.1c1-0.4,1.9-0.8,2.7-1.2
			c0.4-0.2,0.9-0.4,1.3-0.7c0.4-0.2,0.8-0.5,1.3-0.6c0.2-0.1,0.4-0.1,0.6-0.2c1.7,1.1,3.6,2.2,5.6,3.2c-0.2,1.9-0.5,3.5-0.9,4.8
			c-0.1,0.3-0.2,0.7-0.4,1.1c-0.2,0.6-0.5,1.3-0.9,1.8c-0.3,0.4-0.5,0.9-0.8,1.3c-0.4,0.7-0.8,1.4-1.3,2c-0.5,0.7-0.8,1.4-1.1,2.2
			C149,128.5,149.3,128.3,149.5,128 M160.6,121.2c-0.1-0.7-0.2-1.3-0.5-1.9c-0.2-0.6-0.5-1.2-0.8-1.8c-0.6-1.2-1.4-2.2-2.4-3.1
			c-0.9-0.9-2-1.6-3.2-2.2l-1.9-0.9l-1-0.5c-0.3-0.2-0.6-0.3-0.9-0.5c-1.2-0.7-2.4-1.5-3.5-2.4c-2.2-1.8-4.1-3.9-5.6-6.3
			c2,2,4.1,3.8,6.3,5.3c1.1,0.8,2.3,1.5,3.5,2.1l0.9,0.5l0.9,0.4l1.9,0.8c1.3,0.7,2.5,1.5,3.6,2.6c0.5,0.5,1,1.1,1.4,1.7
			c0.2,0.3,0.4,0.6,0.6,0.9c0.2,0.3,0.3,0.6,0.5,1c0.6,1.3,0.9,2.8,0.9,4.2c0,0.7-0.1,1.5-0.3,2.1c-0.1,0.3-0.3,0.7-0.4,1
			c-0.2,0.3-0.4,0.6-0.6,0.8C160.6,123.9,160.8,122.5,160.6,121.2 M162.8,118.9c0.1,1.4-0.4,2.8-1.1,4c0.3-1.3,0.4-2.7,0.2-3.9
			c-0.2-1.3-0.7-2.4-1.3-3.5c-0.7-1.1-1.5-2.1-2.4-3c-0.9-0.9-1.9-1.8-3-2.6c1.3,0.4,2.5,1.1,3.6,2c1,0.8,1.9,1.7,2.6,2.8
			c-0.3-0.5-0.6-1-1-1.4c-0.5-0.6-1-1.3-1.5-1.9c0.7,0.4,1.4,0.9,2,1.5c0.6,0.6,1.1,1.3,1.5,2c0.4,0.8,0.7,1.6,0.8,2.4
			c0.1,0.8,0.1,1.7-0.1,2.5c-0.1-0.8-0.2-1.6-0.5-2.4c-0.1-0.3-0.2-0.7-0.4-1C162.6,117.1,162.8,118,162.8,118.9 M124.3,83.1
			c1.2,3.1,3.6,3.8,3.6,3.8C123.5,87.6,124.3,83.1,124.3,83.1 M125.3,95.1c7.9-2.9,15.7-3.3,21.7-3.1c0.4,0,1.4,0.1,1.5-0.6
			c0.1-0.2,0.1-0.3,0.2-0.5c0,0,0,0,0-0.1c0-0.1,0.1-0.2,0.1-0.2c0,0,0,0,0-0.1c0.1-0.2,0.3-0.5,0.5-0.6c0,0,0.1-0.1,0.1-0.1
			c0.1-0.1,0.1-0.1,0.2-0.1c0,0,0.1-0.1,0.1-0.1c0.1,0,0.1-0.1,0.2-0.1c0,0,0.1,0,0.1-0.1c0,0,0,0,0,0c0.1,0,0.1-0.1,0.2-0.1
			c0,0,0,0,0,0c0,0,0.1,0,0.1-0.1c0,0,0.1-0.1,0.1-0.1c0,0,0,0,0.1,0c0,0,0.1,0,0.1,0c0,0,0.1,0,0.1-0.1c0.1,0,0.1,0,0.2-0.1
			c0,0,0.1,0,0.1,0c0,0,0,0,0.1,0c0.1,0,0.1,0,0.2,0c0,0,0.1,0,0.1,0c0.1,0,0.2,0,0.3,0c0.1,0,0.3,0,0.4,0c0,0,0,0,0,0
			c0.1,0,0.3,0.1,0.4,0.1c0.9,0.3,1.7,1,2.2,2c0.1,0.1,0.1,0.3,0.2,0.4c0,0,0,0.1,0,0.1c0,0.1,0.1,0.2,0.1,0.4c0,0,0,0.1,0,0.1
			c0,0.1,0,0.2,0,0.3c0,0,0,0.1,0,0.1c0,0,0,0.4,0,0.4c1.6,0.4,3,0.9,4.6,1.6c0.1,0,0.2,0,0.2,0.1c0.2,1-0.2,1.5-0.4,1.6
			c0,0-0.1,0-0.1,0c-1.4-0.7-3-1.2-4.7-1.5v0c-0.1,0.2-0.2,0.3-0.2,0.5c0,0,0,0,0,0c-0.1,0.1-0.2,0.2-0.2,0.3c0,0,0,0,0,0
			c0,0-0.1,0.1-0.1,0.1c-0.1,0.1-0.1,0.2-0.2,0.2c0,0-0.1,0.1-0.1,0.1c-0.1,0.1-0.2,0.2-0.3,0.3c0,0,0,0,0,0c0,0,0,0-0.1,0
			c0,0,0,0,0,0c-0.1,0.1-0.2,0.1-0.3,0.2c0,0-0.1,0-0.1,0.1c-0.1,0.1-0.2,0.1-0.3,0.1c-0.1,0-0.1,0-0.2,0c-0.1,0-0.2,0-0.2,0.1
			c-0.1,0-0.1,0-0.2,0c0,0-0.1,0-0.1,0c-0.1,0-0.2,0-0.3,0c0,0-0.1,0-0.1,0c-0.1,0-0.2,0-0.2,0c0,0-0.1,0-0.1,0c-0.1,0-0.1,0-0.2,0
			c-0.1,0-0.1,0-0.2,0c0,0-0.1,0-0.1,0c-0.1,0-0.1,0-0.2-0.1c0,0,0,0,0,0c-0.3-0.1-0.7-0.3-0.9-0.6c-0.2-0.2-0.4-0.4-0.5-0.6
			c0,0,0-0.1-0.1-0.1c-0.1-0.1-0.1-0.2-0.1-0.2c0,0-0.1-0.1-0.1-0.1c0-0.1-0.1-0.2-0.1-0.3c0,0,0-0.1,0-0.1c0-0.1-0.1-0.2-0.1-0.4
			c0,0,0-0.1,0-0.1c0,0,0,0,0,0c0-0.1,0-0.1-0.1-0.2c-6.2-0.3-11.7,0.5-11.7,0.5c-24.6,2-29.3,18.2-29.3,18.2
			c0.6-3.1,2.5-6.1,4.5-8.6C115.4,99.6,120,97.1,125.3,95.1 M103.1,133.4c-0.1-0.3-0.1-0.7-0.2-1c-0.1-0.3-0.2-0.7-0.3-0.9l0-0.1
			c-0.4-1.3-0.7-2.7-0.6-4.1c0.1-1.4,0.4-2.7,0.9-4c0.5-1.3,1.2-2.4,2-3.5c0.8-1.1,1.7-2.1,2.7-2.9c-0.9,1-1.7,2-2.4,3.2
			c-0.3,0.5-0.5,0.9-0.8,1.4l0,0c-0.1,0.3-0.2,0.6-0.2,0.9c0-0.1,0.1-0.1,0.1-0.2l2.6-3.1l-1,3.9c-0.2,0.7-0.3,1.4-0.4,2.1
			c0.3-0.4,0.6-0.9,0.9-1.3l1.5-1.8l-0.4,2.3c-0.2,0.9-0.2,1.9-0.2,2.9c0.4-0.7,0.9-1.4,1.4-2l0.7-0.8l-0.1,1.1
			c-0.1,1.1-0.1,2.2,0,3.3c0.4-0.9,1-1.7,1.6-2.4l0.2-0.2l0,0.3c0,1.1,0.1,2.2,0.4,3.3c-0.3-1-0.5-2-0.5-3c-0.6,0.9-1.2,1.8-1.5,2.8
			l-0.2,0.6l-0.2-0.7c-0.2-1-0.4-1.9-0.4-2.9c-0.5,0.8-0.9,1.7-1.2,2.6l-0.6,1.6l-0.3-1.7c-0.2-0.8-0.2-1.6-0.3-2.5
			c-0.3,0.6-0.6,1.3-0.8,2l-1,3l-0.4-3.2c-0.1-0.5-0.1-1-0.1-1.5c-0.1,0.3-0.2,0.6-0.4,0.9l-0.4,1.1c0.1,0.8,0.3,1.5,0.6,2.3
			c0.2,0.4,0.3,0.7,0.4,1.1c0.1,0.4,0.2,0.7,0.3,1.1c0.2,0.8,0.3,1.5,0.3,2.3c0.1,1.6-0.2,3.2-0.8,4.6c-0.3,0.7-0.7,1.4-1.2,2.1
			c-0.3,0.3-0.5,0.6-0.8,0.9c-1.2,1.4-1.8,2.8-2.1,3.6c-0.1,0.3-0.2,0.6-0.2,0.9c0.2-0.3,0.4-0.5,0.6-0.8l2.3-2.8l-0.8,3.5
			c-0.2,0.9-0.4,1.8-0.4,2.6c0.4-0.6,0.8-1.2,1.2-1.7l1.3-1.6l-0.4,2c-0.2,1.1-0.3,2.2-0.2,3.3c0.4-0.8,1-1.6,1.6-2.3l0.6-0.8
			l-0.1,1c-0.1,1.2-0.1,2.3,0.1,3.5c0.5-0.9,1-1.8,1.7-2.6l0.2-0.2l0,0.2c0,1.1,0.1,2.3,0.4,3.4c-0.3-1-0.5-2.1-0.6-3.2
			c-0.7,0.9-1.2,1.9-1.6,2.9l-0.2,0.6l-0.1-0.6c-0.3-1-0.4-2.1-0.4-3.2c-0.6,0.9-1,1.8-1.4,2.8l-0.5,1.4l-0.3-1.5
			c-0.2-0.9-0.3-1.9-0.3-2.9c-0.4,0.7-0.8,1.5-1,2.3l-0.9,2.7l-0.3-2.8c-0.1-0.7-0.1-1.4-0.1-2.1c-0.2,0.5-0.4,1-0.6,1.5l-1.6,4.3
			l-0.3-4.6c-0.1-0.9,0-1.8,0-2.7c-0.8,1.8-1.2,3.8-1.1,5.7c0.1,1.4,0.4,2.8,0.9,4.2c0.5,1.3,1.3,2.6,2.2,3.8
			c-1-1.1-1.8-2.3-2.4-3.6c-0.7-1.3-1.1-2.7-1.3-4.2c-0.2-1.5-0.1-3,0.2-4.5c0.3-1.5,0.9-2.9,1.6-4.2c0.1-0.3,0.3-0.5,0.4-0.8
			c0-0.1,0-0.1,0-0.2l0.1,0c0.6-1,1.3-1.9,2.1-2.7c0.5-0.5,0.9-1.1,1.2-1.6c0.4-0.6,0.7-1.1,1-1.7c0.6-1.2,0.9-2.5,0.9-3.9
			C103.3,134.7,103.3,134.1,103.1,133.4 M120.1,193c1.1-0.2,3.8-1.3,6-5.8c0,0,1.4-3,7.7-3.9c0.3,0,0.6,0,0.9,0l0.8,0.1
			c0.4,0.1,0.8,0.2,1.2,0.4c0.6,0.3,1.7,0.9,2.3,1.1c-1.2,0-2.4,0.4-3.1,1.4c-0.2,0-0.4-0.1-0.6-0.1c-0.7-0.1-1.5-0.1-2.2-0.1
			c-0.7,0-1.5,0.1-2.2,0.2c-0.7,0.1-1.4,0.3-2.1,0.7c0.7,0,1.4,0,2.2,0c0.7,0,1.4,0,2.1,0.1c0.7,0.1,1.4,0.2,2.1,0.3
			c0.7,0.2,1.3,0.4,2,0.6l0,0c0.4,0.1,0.7,0.3,1.1,0.4c0.4,0.2,0.7,0.3,1.1,0.5c0.3,0.2,0.7,0.4,0.9,0.6c0.3,0.2,0.5,0.4,0.6,0.7
			c0,0.1,0,0.1,0,0.2l-0.1,1c0,0.4-0.4,0.6-0.7,0.6l-3-0.4c-0.2,0-0.4,0.1-0.4,0.3c0,0.2,0.1,0.4,0.3,0.4l2.9,0.3
			c0.3,0,0.5,0.2,0.7,0.5c0.1,0.3,0.2,0.7,0.2,1.1l-0.1,0.6c-0.1,0.5-0.4,0.8-0.9,0.9c0,0-0.1,0-0.1,0l-3.1,0.2
			c-0.2,0-0.4,0.2-0.4,0.4c0,0.2,0.2,0.3,0.3,0.4c0,0,0,0,0.1,0l2.9-0.2c0.5,0,1.1,0.3,1.2,0.9c0.1,0.2,0.1,1.3,0.1,1.8
			c0,0.6-0.6,1-1.1,1.1c-1.7,0.2-3.5,0.1-3.5,0.1c-0.2,0-0.4,0.1-0.4,0.4c0,0.2,0.1,0.4,0.3,0.4c0,0,0,0,0,0c0.1,0,2.1,0.2,4-0.1
			c0.3,0,0.5,0.1,0.6,0.3c0.1,0.1,0.1,0.3,0.2,0.5c0.1,0.5-0.2,1-0.7,1.1c-1.4,0.6-5.3,2.1-6,2.4c-0.1,0-0.2,0.1-0.3,0.1
			c-4.1,0.8-10.8-1.2-12.8-1.9C121.3,197.6,120.5,194.2,120.1,193 M158.6,218.9c-0.7-0.4-1.4-1.7-2.2-1.8c-2.2-0.2-8.3-0.6-11.8-1.1
			c-3.6-0.5-4.9-1.7-5.4-2.4c-0.1-0.2-0.4-0.7-0.3-0.9l0-2.3c0-0.1-0.1-0.3-0.2-0.4l-2.3-2c-0.1-0.1-0.3-0.1-0.4-0.1l-2.9,0.8
			c-0.1,0-0.3,0.1-0.4,0.1c-1.7,0.1-7.2-1.2-7.2-1.2l0.5,0.9c0.6,1.2,2.2,3.5,5.2,4.8c0,0-2,0.3-5-2.1c0.7,1.2,2.2,3.3,5,4.6
			c0,0-1.9,0.3-4.9-2.1l0,0.1c0.7,1.2,2.2,3.3,5,4.4c0,0-1.9,0.3-4.8-2c0,0,1.5,2.7,4.9,4.4c0,0-1.9,0.3-4.7-1.9c0,0,1.8,3,4.8,4.3
			c-3.4-0.2-5.8-3-5.8-3c-0.1-0.1-0.1-0.3-0.1-0.5c-0.3-7.2-1.5-11.7-2.3-13.9c1.7,0.5,3.8,1,5.9,1.2c1.9,0.2,3.8,0.3,5.3-0.1
			l2.2-0.9c0.6,0.7,2.3,2.6,4.3,3.4c0,0.1,0,0.1-0.1,0.2c-0.5,1.4-0.1,2.9,1,3.8c1.3,1.1,4.8,1.4,5.5,1.4c5.4,0.6,8.3,0.4,8.4,0.4
			c0.5,0,1,0,1.4-0.1c1,1.2,4.1,4.3,9,6.7c-0.1,0.3-0.3,1.2-0.4,1.5l-0.7-0.4L158.6,218.9z M157.2,261.4l-1.7-19l5.4-0.5l1.7,19
			L157.2,261.4z M141.1,261.3c0-0.5,0.6-18.6,0.6-19.1l5.4,0.2l-0.5,15l5.5,0.2l0.6,4.1L141.1,261.3z M136.9,254.2
			c-0.8,4-4,6.2-8.7,5.2l-6.7-1.3l3.7-18.8l6.7,1.3c4.7,0.9,5.5,3.9,5.1,5.9c-0.4,1.9-1.9,2.4-1.9,2.4
			C135.2,249,137.6,250.8,136.9,254.2 M108.2,253.5c-5.7-2.3-5.8-7.5-4-11.9l3.6-8.9l5.1,2l-3.6,8.9c-1.8,4.4-1.9,6.6,0,7.3
			c1.9,0.8,3.3-0.9,5.1-5.3l3.6-8.9l5.1,2l-3.6,8.9C117.6,252.1,113.9,255.8,108.2,253.5 M93.9,236.9l-1.2-0.7l-4.4,6.9l-4.6-2.9
			L94,224.1l5.8,3.7c3.5,2.2,5.6,5.2,3.4,8.6C100.9,239.8,97.3,239.1,93.9,236.9 M52.3,200l-5.9,1.3L39,182.7l5.2-3.1l2.6,6.5
			l20.5-8.2l3,7.5l-20.5,8.2L52.3,200z M35.5,165.2l11-1.1l-0.8-8l-11,1.1l-0.8-7.9l27.9-2.9l0.8,7.9l-12.9,1.3l0.8,8l12.9-1.3
			l0.8,7.9l-27.9,2.9L35.5,165.2z M37.8,121l6.1,0.1l-1.7,8.9l4.9,0.9l1.5-7.9l5.9,1.1l-1.5,7.9l4.9,0.9l1.9-9.8l5.7,2.1l-3.1,16.7
			c-2.8-0.5-23.8-4.5-27.5-5.2L37.8,121z M52,88.2c3.2-5.1,7.5-8.3,12.6-5.1c5.1,3.2,4.1,8.5,1,13.6l-1.1,1.7l10.2,6.4l-4.2,6.8
			L46.7,96.7L52,88.2z M68.4,67.6l20.5,19.1l-5.5,5.8L62.9,73.4L68.4,67.6z M84.5,54.2c4.9-3.4,10.2-4.6,13.6,0.3
			c3.4,5,0.4,9.5-4.5,12.9l-1.7,1.1l6.8,9.9L92.1,83L76.3,59.9L84.5,54.2z M114.6,39.2l3.1,5.2l-8.4,3.3l1.8,4.7l7.5-2.9l2.2,5.6
			l-7.5,2.9l1.8,4.7l9.3-3.6l1.3,6l-15.8,6.2c-1-2.6-8.8-22.5-10.2-26.1L114.6,39.2z M135.5,34.8c6-0.7,11.2,0.7,11.9,6.6
			c0.4,3.3-0.8,5.5-3,7l6.4,12.8l-8,1l-5.4-11.4l-2,0.2l1.4,11.9l-7.9,1l-3.3-27.8L135.5,34.8z M156.4,34c1.6,0.1,2.9,1.5,2.8,3.1
			c-0.1,2.5-1.6,4.3-3.5,5l-0.6-1.3c0.5-0.2,1-0.5,1.3-0.8l-0.4,0c-1.7-0.1-3-1.5-2.9-3.2C153.3,35.2,154.7,34,156.4,34 M164.4,42.2
			c0.7-2.9,4.8-7.1,11.6-5.4c4.6,1.1,7.7,3.5,10.3,8.6l-4,2.5c-0.9-2.4-3-6.2-6.3-7c-1.9-0.5-3.2,0.3-3.4,1.2
			c-0.9,3.6,12.5,8.1,10.4,16.9c-0.7,2.9-4.8,7.1-11.6,5.4c-4.6-1.1-7.7-3.5-10.3-8.6l4-2.5c0.9,2.4,3,6.2,6.3,7
			c1.9,0.5,3.1-0.3,3.4-1.2C175.7,55.6,162.3,51,164.4,42.2 M209,49.5l8.1,5.9c4.9,3.5,7.8,8.1,4.2,12.9c-1.9,2.7-4.3,3.5-7,3.1
			l-4,13.7l-6.5-4.7l3.8-12.1l-1.6-1.2l-7,9.7l-6.5-4.7L209,49.5z M244.3,82.4l-4.1,4.5l-5.7-7l-3.9,3.1l5,6.3l-4.7,3.8l-5-6.3
			l-3.9,3.1l6.3,7.8l-5.3,3l-10.7-13.2c2.2-1.8,18.8-15.2,21.8-17.6L244.3,82.4z M254.5,100.2c2,4.3,2,8.2-0.4,13.4l-4.4-1.6
			c1.3-2.2,3-6.2,1.6-9.2c-0.8-1.8-2.2-2.3-3.1-1.9c-3.3,1.5,1.3,14.8-6.9,18.6c-2.7,1.2-8.5,0.6-11.4-5.8c-2-4.3-2.1-8.2,0.4-13.4
			l4.4,1.6c-1.3,2.2-3,6.2-1.6,9.2c0.8,1.8,2.1,2.3,3.1,1.9c3.4-1.5-1.3-14.8,6.9-18.6C245.8,93.2,251.6,93.9,254.5,100.2 M150,26.8
			C82,26.8,26.8,82,26.8,150S82,273.2,150,273.2c68,0,123.2-55.3,123.2-123.2S218,26.8,150,26.8"/>
		<path d="M91.6,59.1c-1.1-1.7-3.7-2.3-6.5-0.4l4.5,6.6C92.5,63.3,92.7,60.7,91.6,59.1"/>
		<path d="M212.3,221.5c-1.1,1-0.8,3.6,2.5,7.4c3.3,3.9,5.9,4.6,7,3.6c1.1-1,0.8-3.5-2.5-7.4C216,221.3,213.4,220.6,212.3,221.5"/>
		<path d="M139.6,42.4c-0.2-2-2.2-3.8-5.6-3.4l0.9,7.9C138.3,46.5,139.8,44.3,139.6,42.4"/>
		<path d="M60.4,89.9c-1.7-1.1-4.3-0.7-6.1,2.2l6.8,4.2C62.9,93.4,62.1,90.9,60.4,89.9"/>
		<path d="M128.7,249.8l-1.3,6.7c2.7,0.5,3.7-1.3,4-2.7C131.7,252.5,131.4,250.3,128.7,249.8"/>
		<path d="M128,115.6C128,115.6,128.1,115.6,128,115.6C128.1,115.7,128,115.6,128,115.6 M127.2,116.1L127.2,116.1
			C127.2,116.1,127.2,116.1,127.2,116.1C127.2,116.1,127.2,116.1,127.2,116.1C127.2,116.1,127.2,116.1,127.2,116.1 M133.7,118.2
			c0,0,0,0,0-0.1c0,0,0-0.1,0-0.1c-0.1,0,0-0.2-0.1-0.3c0,0,0,0,0,0c0,0-0.1,0-0.1-0.1l0,0c-0.1-0.2-0.1-0.2-0.2-0.4l0,0
			c0,0,0,0,0-0.1c-0.1,0,0.1,0.1,0,0.1c0-0.1-0.2-0.2-0.2-0.3c0-0.1,0,0-0.1,0l0,0l0,0c0,0,0-0.1,0-0.1c0,0,0,0,0,0
			c0-0.1-0.1-0.1-0.1-0.1l0,0.1c-0.1-0.1-0.3-0.3-0.4-0.4l0,0c-0.1-0.1-0.1-0.1-0.2-0.2h0c0,0-0.1,0-0.1,0c0,0,0-0.1,0,0
			c-0.1-0.1-0.1,0-0.2,0l0,0c0,0,0,0-0.1,0c0.1,0,0,0,0,0c-0.1-0.1-0.2-0.1-0.3-0.2c-0.1,0,0.1,0.1,0.1,0.1c0,0-0.1,0-0.1,0
			c0,0,0-0.1-0.2-0.2c0,0,0,0,0,0c0,0-0.1,0-0.1-0.1c0,0-0.1,0-0.1,0l0.1,0c-0.1,0-0.1,0-0.2,0c0,0,0,0,0.1,0c0,0-0.1,0-0.1,0
			c0,0,0.1,0,0.2,0c0,0-0.1,0-0.1,0c-0.1,0-0.1,0-0.2,0l0,0c0,0,0,0-0.1,0l0.1,0c0,0-0.1,0-0.1,0c0,0,0,0,0,0.1
			c-0.2,0-0.1-0.1-0.3-0.1c0,0,0.1,0,0,0c0,0-0.1,0-0.1,0c-0.1,0,0,0,0,0c0,0-0.1,0-0.1,0l0,0c-0.1,0,0,0-0.2,0l0.1,0l-0.1,0l0,0
			c-0.1,0-0.1,0-0.2,0c0,0,0,0-0.1,0c0,0,0,0-0.1,0c0,0,0,0,0.1,0c0,0,0,0,0,0c0,0-0.1,0-0.1,0c0,0,0,0,0,0l-0.1,0c0,0,0,0,0,0
			c0,0,0,0-0.1,0c0,0,0,0,0.1-0.1l-0.1,0c0,0-0.1,0,0,0c-0.1,0-0.2,0-0.3,0c0,0,0,0,0,0c-0.1,0-0.2,0-0.3,0l-0.1,0
			c-0.1,0,0.1,0,0,0.1c-0.1,0,0,0-0.1,0c0,0-0.1,0.1-0.2,0c0,0,0,0,0.1,0l-0.1,0c0.1,0,0.1,0,0.1-0.1c0,0.1-0.2,0-0.2,0.1l0,0
			c0,0,0,0.1-0.1,0.1c0,0-0.1,0,0,0l-0.1,0c0,0,0,0,0,0l-0.1,0v0c0,0-0.1,0-0.1,0.1c0,0,0,0,0,0l-0.1,0c0,0,0,0,0.1,0
			c-0.1-0.1-0.1,0-0.2,0l0.1,0c-0.1,0-0.1,0-0.2,0c0,0,0.2,0,0.1,0.1c0,0-0.1,0-0.1,0c0,0,0,0-0.1,0l0,0c0,0,0,0-0.1,0.1
			c-0.1,0-0.1,0-0.1,0c-0.1,0,0.1,0,0,0.1c-0.1,0-0.1,0-0.2,0.1c-0.1,0,0,0,0,0l0,0c0,0,0,0,0,0c0,0,0,0-0.1,0.1c0,0-0.1,0-0.2,0
			c0,0,0,0,0,0c-0.1,0-0.1,0-0.1,0.1l0,0.2c0,0,0,0,0,0l0,0c0,0,0,0,0,0l0.1,0c0,0,0,0,0-0.1c0,0,0.1,0,0.1,0c0,0,0,0,0,0.1
			c0,0,0,0,0,0c0,0,0,0,0,0c0,0,0,0,0,0c0,0,0,0,0,0l0,0l0,0l0.1,0c0.1,0,0.2-0.1,0.3-0.1c0,0,0,0,0,0.1c0,0-0.1,0-0.2,0
			c0,0,0,0,0,0l0.1,0c0,0,0,0,0.1,0c0-0.1,0.1,0,0.2,0c0,0,0,0,0,0c0,0,0.1,0,0.1,0c0,0,0,0,0,0c0,0,0.1,0,0.1,0l0,0
			c0.1,0,0.3,0,0.4,0c0,0,0,0.1,0,0.1l0.1-0.1c0,0,0,0,0.1,0c0,0,0,0.1-0.1,0.1c0,0,0.1,0,0.1,0c0,0,0-0.1,0-0.1
			c0.1,0.1,0,0,0.1,0.1c0,0,0-0.1,0.1-0.1c0,0,0,0.1,0,0.1l0.1-0.1c0,0,0,0.1,0,0.1c0,0,0.1,0,0.1,0l0,0c0.1,0,0.1-0.1,0.2-0.1
			c0,0,0,0.1,0,0.1c0,0,0.1-0.1,0.1-0.1c0,0,0.1,0,0.1,0c-0.1,0-0.1,0.1-0.2,0.1c0,0,0,0,0.1,0c0,0,0,0-0.1,0l0.2,0
			c0,0,0.1,0,0.1-0.1l-0.2,0c0,0,0.1-0.1,0.2-0.1c0,0,0,0.1,0,0.1c0,0,0.1,0,0.1,0l0,0c0.1,0,0.1,0,0.2,0c0,0,0.1,0.1,0.1,0
			c0,0,0-0.1,0-0.1c0,0,0.1,0,0.1,0l0,0l0,0l0,0c0,0,0.1,0,0.1,0c0,0-0.1,0.1,0,0.1c0,0,0,0,0,0c0,0,0,0,0,0c0,0,0.1,0,0,0
			c0.1,0,0.1,0,0.1,0c0,0,0,0,0.1-0.1c0,0,0,0,0.1,0c0,0,0,0,0,0c0.1,0,0.2,0.1,0.3,0.1c0,0,0.1,0,0,0c0,0,0,0,0.1,0
			c0.1,0-0.1,0,0,0c0,0,0.1,0,0.1,0c0,0-0.1,0-0.2,0c0,0,0,0,0,0c0.1,0,0.2,0.1,0.4,0.1c0.1,0,0.3,0.1,0.4,0.1c0,0,0,0,0.1,0
			c0.1,0,0.1,0,0.2,0.1l0,0l0,0c0.1,0,0.1,0,0.2,0.1c0,0,0,0,0,0l0.1,0c0,0,0,0,0,0c0,0,0,0,0,0c0,0,0,0,0,0c0,0,0.1,0,0.1,0
			c0,0,0,0,0,0h0c0,0,0.1,0,0.1,0c0,0,0,0,0,0c0,0,0,0,0,0c0.5,0.2,0.9,0.5,1.2,0.8c0,0.1,0,0.1,0.1,0.2c0,0,0,0,0,0c0,0,0,0,0,0
			l0,0.1C133.6,118,133.6,118.1,133.7,118.2l-0.1-0.1c0,0,0,0,0.1,0C133.7,118.1,133.7,118.1,133.7,118.2"/>
		<path d="M128.8,118.6c0,0-0.2,0-0.3,0c0,0,0,0,0.1,0c0.2,0,0.4,0,0.6,0.1c0.1,0,0.4,0.1,0.6,0.1c0,0,0.1,0,0.1,0
			c0.1,0,0.2,0,0.4,0.1l0,0l0,0c0.1,0,0.2,0,0.3,0.1c0,0,0,0,0,0l0.1,0c0,0,0,0,0,0c0,0,0,0,0,0c0,0,0,0,0,0c0,0,0,0,0.1,0l0.1,0
			c0,0,0,0,0,0c0,0,0,0,0,0l0.1,0c0,0,0,0,0,0c0,0,0,0,0,0l3,0.9c0,0,0-0.1-0.1-0.2c0,0,0-0.1,0-0.1c-0.1-0.1-0.1-0.3-0.3-0.4
			c0,0,0,0,0,0c0,0-0.1-0.1-0.1-0.1l0,0c-0.2-0.2-0.3-0.3-0.5-0.5l0,0c0,0-0.1-0.1-0.1-0.1c-0.1,0,0.1,0.1,0.1,0.1
			c0-0.1-0.4-0.3-0.4-0.4c-0.1-0.1,0,0-0.1,0l0,0l0,0c-0.1,0-0.1-0.1-0.1-0.1c0,0,0,0,0.1,0c-0.1-0.1-0.2-0.1-0.2-0.2l0.1,0.1
			c-0.2-0.2-0.5-0.3-0.8-0.4l0,0c-0.2-0.1-0.1-0.1-0.4-0.2l0,0c0,0-0.1,0-0.2-0.1c0.1,0-0.1-0.1,0,0c-0.2-0.1-0.1,0-0.3-0.1l0,0
			c-0.1,0-0.1,0-0.2,0c0.1,0-0.1,0,0,0c-0.2-0.1-0.4-0.1-0.4-0.1c-0.1,0,0.2,0.1,0.1,0.1c0,0-0.1,0-0.2,0c-0.1,0-0.1-0.1-0.3-0.1
			c0,0,0,0,0,0c-0.1,0-0.1,0-0.2,0c-0.1,0-0.1,0-0.1,0l0.2,0c-0.1,0-0.2,0-0.4,0c0,0,0.1,0,0.1,0c0,0-0.1,0-0.1,0c0,0,0.2,0,0.3,0
			c0,0-0.2,0-0.1,0c-0.1,0-0.2,0-0.3,0l0,0c0,0-0.1,0-0.1,0c0,0,0,0,0.1,0c-0.1,0-0.1,0-0.2,0c0,0,0,0,0,0c-0.3,0-0.1-0.1-0.4-0.1
			c0,0,0.1,0,0.1,0c-0.1,0-0.1,0-0.2,0c-0.2,0,0,0-0.1,0c-0.1,0-0.1,0-0.2,0v0c-0.2,0-0.1,0-0.3,0l0.1,0l-0.1,0l0,0
			c-0.1,0-0.1,0-0.3,0c0,0,0,0-0.1,0c-0.1,0,0,0-0.1,0c0,0,0.1,0,0.1,0c0,0,0,0,0,0c-0.1,0-0.2,0-0.2,0c0,0,0,0,0.1,0l-0.2,0
			c0,0,0,0,0,0c0,0-0.1,0-0.1,0c0,0,0,0,0.1,0l-0.2,0c0,0-0.1,0-0.1,0c-0.1,0-0.3,0-0.4,0c0,0,0,0,0,0l0,0c0,0,0,0,0,0
			c0,0,0,0-0.1,0c-0.1,0-0.2,0-0.4-0.1l-0.1,0c-0.1,0,0.1,0.1-0.1,0c-0.1,0,0,0-0.1-0.1c-0.1,0-0.2,0-0.3-0.1c0,0,0.1,0,0.1,0
			l-0.1,0c0.1,0,0.2,0,0.1,0c0,0-0.4-0.1-0.4-0.1l-0.1,0c-0.1,0-0.1,0-0.2-0.1c-0.1,0-0.1,0,0,0l-0.1,0c0,0,0,0,0,0l-0.2-0.1l0,0
			c0,0-0.1,0-0.1,0c0,0,0,0,0,0l-0.1,0c0,0,0.1,0,0.1,0c-0.1-0.1-0.1,0-0.3-0.1l0.1,0c-0.1-0.1-0.1-0.1-0.2-0.1c0,0,0.2,0.1,0.1,0.1
			c0,0-0.1,0-0.1,0c0,0-0.1,0-0.1-0.1l0,0c-0.1,0-0.1,0-0.1,0c-0.1,0-0.1-0.1-0.1-0.1c-0.1-0.1,0.1,0.1-0.1,0
			c-0.1-0.1-0.2-0.1-0.3-0.1c-0.1,0,0,0,0,0l-0.1,0c0,0,0,0,0,0c-0.1,0,0,0-0.1,0c0,0,0,0,0,0c0,0,0,0-0.1,0c-0.1,0-0.1,0.1-0.1,0.1
			c0,0.1,0,0.2,0.1,0.2c0,0,0,0,0,0c0.1,0.1,0.1,0.1,0.2,0.2l0.1,0.1c0-0.1,0,0,0.1,0.1c0,0,0,0,0,0c0,0,0,0,0,0c0,0,0,0,0,0l0,0
			c0,0,0,0,0,0c0,0,0,0,0,0.1c0,0,0,0,0,0l0-0.1c0,0-0.1,0-0.1,0c0,0,0,0,0,0c0,0,0,0,0,0c0,0,0,0,0,0l0,0h0l0.1,0.2
			c0.1,0.1,0.2,0.2,0.4,0.3c-0.1,0,0,0,0,0c0-0.1-0.1-0.1-0.2-0.2c0,0,0,0,0,0l0.2,0.1c0,0,0,0,0.1,0.1c0-0.1,0.1,0.1,0.2,0.1
			c0,0,0,0,0,0c0,0,0.1,0,0.1,0.1c0,0,0,0,0,0c0.1,0,0.2,0.1,0.1,0.1l0,0c0.1,0.1,0.4,0.3,0.5,0.3c0,0,0,0-0.1,0
			c0.1,0,0.2,0,0.2,0.1c0,0,0.1,0,0.1,0.1c0,0,0,0.1-0.1,0l0,0v0l0,0c0,0,0.1,0.1,0.2,0.1c0,0,0-0.1,0-0.1c0.1,0.1,0.1,0.1,0.2,0.1
			c0,0,0,0,0.1,0c0,0,0,0,0,0c0.1,0,0.1,0,0.2,0c0,0,0,0,0,0.1c0,0,0.1,0.1,0.2,0.1l-0.1,0c0.2,0.1,0.2,0,0.4,0.1c0,0-0.1,0,0,0.1
			c0,0,0.1,0,0.2,0c0.1,0,0.1,0,0.2,0c-0.1,0-0.2,0-0.3,0c0.1,0,0,0,0.1,0c0,0-0.1,0-0.1,0c0.1,0,0.2,0,0.3,0.1c0,0,0.2,0,0.2,0
			c-0.1,0-0.2,0-0.3,0c0,0,0.2,0,0.3,0c0,0,0,0,0,0c0,0,0.2,0,0.2,0l-0.1,0c0.1,0,0.2,0,0.3,0c0,0,0.1,0,0.1,0c0,0-0.1-0.1-0.1-0.1
			c0,0,0.1,0,0.1,0l0,0l0,0v0c0,0,0.1,0,0.1,0c0,0-0.1,0-0.1,0.1c0,0,0,0,0.1,0c0,0,0,0,0.1,0c0,0,0.2,0,0,0c0.1,0,0.1,0,0.2,0
			c0,0,0,0,0.1,0c0,0,0.1,0,0.1,0c0,0,0,0,0,0c0.2,0,0.3,0,0.5,0.1c0,0,0.1,0,0.1,0c0,0,0,0,0.1,0c0.1,0-0.1,0,0,0
			C128.5,118.6,128.7,118.6,128.8,118.6"/>
		<path d="M151.4,95.5c1.2,0.1,2.3-0.9,2.5-2.4c0.2-1.4-0.7-2.7-1.8-2.9c-1.2-0.1-2.3,0.9-2.5,2.4C149.4,94.1,150.2,95.4,151.4,95.5
			"/>
		<path d="M124.8,111.8c0.5-0.2,1-0.2,1.4-0.2c0.5,0,1,0.2,1.5,0.4c0.5,0.2,0.9,0.4,1.4,0.6c0.5,0.2,0.9,0.5,1.3,0.8
			c0.4,0.3,0.9,0.6,1.3,0.8c0.9,0.5,1.8,1.1,2.8,1.5l0.1-0.1c-0.3-0.5-0.6-0.9-1-1.3c-0.4-0.4-0.8-0.8-1.2-1.1
			c-0.9-0.7-1.9-1.1-2.9-1.6c-1-0.4-2.1-0.8-3.3-0.7c-0.6,0-1.2,0.2-1.6,0.5c-0.5,0.3-0.8,0.8-1.1,1.3l0.1,0.1
			C124,112.4,124.3,112,124.8,111.8"/>
		<path d="M143.8,116.6C143.8,116.6,143.8,116.6,143.8,116.6L143.8,116.6C143.8,116.6,143.8,116.6,143.8,116.6 M144.5,116.5
			c0.1,0,0.1,0,0.2,0l-0.1,0c0,0,0.1,0,0.1,0c0,0,0,0,0,0c0.1,0,0.2,0,0.4,0c0,0-0.1,0.1-0.2,0.1c-0.1,0,0,0-0.1,0
			C144.7,116.5,144.7,116.6,144.5,116.5C144.5,116.6,144.5,116.5,144.5,116.5 M144.6,116.6L144.6,116.6
			C144.6,116.6,144.6,116.6,144.6,116.6 M145.5,116.4C145.5,116.4,145.5,116.4,145.5,116.4C145.4,116.4,145.4,116.4,145.5,116.4
			C145.5,116.4,145.5,116.4,145.5,116.4 M145.8,116.3L145.8,116.3L145.8,116.3C145.9,116.3,145.9,116.3,145.8,116.3
			C145.9,116.4,145.9,116.4,145.8,116.3C145.9,116.4,145.8,116.4,145.8,116.3C145.8,116.4,145.8,116.4,145.8,116.3
			C145.8,116.3,145.8,116.3,145.8,116.3 M146.4,116.3c0,0,0.1,0,0.1,0C146.5,116.4,146.4,116.4,146.4,116.3L146.4,116.3l-0.1,0.1
			C146.3,116.4,146.3,116.4,146.4,116.3 M147.3,116.3C147.3,116.3,147.3,116.3,147.3,116.3L147.3,116.3
			C147.3,116.4,147.3,116.3,147.3,116.3 M148.6,116.4C148.6,116.4,148.6,116.4,148.6,116.4L148.6,116.4
			C148.6,116.4,148.6,116.4,148.6,116.4 M142,117.6c0,0.1-0.1,0.1-0.1,0.1C142,117.7,142,117.7,142,117.6
			C142,117.6,142.1,117.6,142,117.6c0.1-0.1,0.2-0.1,0.2-0.2c0,0,0,0,0,0c0,0,0,0,0,0c0,0,0,0,0,0c0.3-0.3,0.8-0.5,1.3-0.7
			c0,0,0,0,0,0l0,0c0,0,0,0,0,0c0,0,0.1,0,0.1,0c0,0,0,0.1,0.1,0.1c0,0,0,0,0,0c0,0-0.1,0-0.1,0c0.1,0,0.1,0,0.1,0
			c0,0,0-0.1,0.1-0.1c0,0,0.1,0,0.1,0l0,0l0,0l0,0c0.1,0,0.2,0,0.3-0.1c0,0,0,0,0,0l0,0c0,0-0.1,0,0,0c-0.1,0-0.1,0.1-0.2,0.1l0,0
			c0,0,0.1,0,0.1,0c0,0-0.1,0-0.2,0l0.1,0c0,0-0.1,0.1-0.2,0.1c0,0,0,0,0.1,0c-0.1,0,0.2,0,0.1-0.1c0.1,0,0.1,0,0.2,0c0,0,0,0,0,0
			c0,0,0,0,0,0h0l0,0c0,0,0,0,0,0c0,0,0,0,0,0c0,0,0.1,0,0.1-0.1c0,0,0,0,0,0l0,0c0,0,0.1,0,0,0.1l0.1,0c0,0,0.1,0,0.1,0
			c0,0,0.1,0,0.1,0l0.1,0l0,0c0.1,0,0.2-0.1,0.4,0c0,0,0.1,0,0.1,0l0,0c0,0,0.1,0,0.2,0c0.1,0.1,0.2,0,0.3,0l0,0c0.1,0,0.1,0,0.2,0
			l0,0c0.1,0,0.2,0,0.3,0c0,0,0,0,0,0c0.1,0.1,0.3,0,0.4,0c0,0,0,0,0.1,0l0,0h0c0,0,0,0,0,0c0,0,0,0,0,0c0,0,0.1,0,0.1,0l0,0
			c0,0,0,0,0,0c0,0,0,0,0,0c0,0,0,0,0,0c0,0,0.1,0,0.1,0c0,0,0.2,0,0.2-0.1c0,0,0,0,0,0c0,0,0.1,0,0.1,0l0,0l0.1,0c0,0,0.1,0,0,0.1
			c0.1,0,0.1,0,0.2-0.1l0,0c0,0,0.1,0,0.1,0c0.1,0,0.4,0,0.6,0.1c0-0.1,0.1,0,0.1,0c0,0,0,0,0,0c0.1,0,0.1,0,0.2,0c0,0,0,0,0,0
			c0,0,0,0,0,0c0,0,0,0,0,0c0.1,0,0.1,0,0.1-0.1c0,0,0.1,0,0.1,0c0,0,0,0,0,0c0,0,0,0,0,0c0,0,0,0,0,0c0,0,0.1,0,0.2,0l0.6,0
			l-0.6-0.2c0,0,0,0-0.1,0c0,0,0,0-0.1,0c-0.1,0-0.1,0-0.2-0.1l0,0c0,0-0.1,0-0.1,0l0,0c-0.1-0.1-0.1,0-0.2-0.1l0,0
			c0,0-0.1-0.1-0.2-0.1l0,0c0,0-0.1-0.1-0.1-0.1c0,0,0,0,0,0c-0.1-0.1,0,0-0.1,0c0,0,0,0,0-0.1c0,0-0.2,0-0.3-0.1c0,0,0,0,0,0
			c-0.1,0-0.1-0.1-0.2-0.1c0,0,0,0,0,0c0,0-0.2,0-0.2,0c0-0.1-0.3,0-0.3-0.1l-0.1,0l0,0c-0.1,0-0.1,0-0.2,0c0,0,0,0,0,0
			c-0.1,0-0.1,0-0.3,0l0,0c0,0-0.2-0.1-0.3,0c0,0,0,0,0,0c-0.2,0-0.4-0.1-0.4,0c0,0-0.1,0-0.1,0c0.1,0,0,0,0,0.1c-0.1,0-0.1,0-0.1,0
			l0,0c0-0.1-0.2,0-0.2,0c-0.1,0-0.3,0-0.4,0c-0.1,0-0.2,0-0.4,0.1l0,0l-0.1,0c0,0,0,0,0,0c0,0-0.1,0-0.1,0c-0.1,0,0-0.1,0,0l0,0
			l0,0c0,0,0,0-0.1,0.1c0,0,0,0,0,0c0,0,0,0,0,0l-0.1,0l0.1,0c0,0-0.1,0,0,0.1c-0.1,0-0.4,0.1-0.4,0.1c0,0.1-0.1,0.1-0.2,0.1
			c0,0,0,0,0,0.1c0-0.1-0.1,0-0.2,0c0.1,0-0.2,0.1-0.1,0.1c-0.1,0,0,0-0.1,0c-0.1,0.1-0.3,0.2-0.4,0.3c0,0,0,0,0,0l-0.1,0
			c0,0,0,0.1-0.1,0.1c0,0,0,0,0,0c-0.3,0.2-0.4,0.5-0.7,0.8c0,0,0,0,0,0c0,0,0,0,0,0l-0.1,0.1C142,117.5,141.9,117.6,142,117.6
			L142,117.6C141.9,117.7,141.9,117.7,142,117.6"/>
		<path d="M135.4,128.3c0,0,1.6-0.5,1-0.8c-0.6-0.2-2,0.7-2,0.7L135.4,128.3z"/>
		<path d="M143.9,204.8c-0.8,3.1,1.2,3.1,1.2,3.1c7.5,1.5,12.2,0.6,12.2,0.6c1.1-0.1,1.3-0.8,1.2-1.5c-0.2-1.6-0.3-3.2-0.3-4.9
			c0.2-6.9,1.2-14.5,1.2-14.5c-9.2-4-15.1-0.6-15.1-0.6S144.9,201.3,143.9,204.8"/>
		<path d="M139.5,127.9C139.5,128,139.4,128,139.5,127.9C139.4,128,139.4,127.9,139.5,127.9 M139.7,128.4
			C139.8,128.4,139.8,128.4,139.7,128.4C139.8,128.4,139.8,128.4,139.7,128.4C139.8,128.4,139.7,128.4,139.7,128.4
			C139.7,128.4,139.7,128.4,139.7,128.4 M138.4,128.9l0.1,0c0,0,0.1,0,0.1,0c0,0,0,0,0,0c0.1,0,0,0,0.1-0.1c0-0.1,0.3,0.1,0.4,0
			c0,0,0,0,0,0c0.2-0.1,0.2-0.1,0.3-0.2c0,0,0.1,0,0.1,0c-0.1,0,0-0.1,0.1-0.2c0,0,0,0,0,0c0,0,0,0,0,0c0,0,0,0,0,0l0,0
			c0,0-0.1,0.1,0,0.1c0,0,0,0,0.1,0c0,0,0,0,0,0c0,0,0,0,0,0l0.1,0v0c0.1,0,0.2-0.1,0.2-0.1c0.1-0.1,0.2-0.3,0.4-0.5
			c0,0.1,0,0.1,0.1,0.1c-0.1,0-0.1,0.2-0.3,0.2c0.1,0,0.1,0,0.1,0c0.1-0.1,0.1-0.1,0.2-0.2c0,0,0.1,0,0.1-0.1
			c-0.1,0,0.1-0.2,0.1-0.3c0,0,0,0-0.1,0.1c0.1-0.1,0.1-0.2,0.2-0.3c0,0,0,0,0,0.1c0-0.1,0.1-0.2,0.1-0.2l0,0
			c0.1-0.2,0.3-0.6,0.2-0.6c0,0,0.1,0,0.1,0.1c0-0.1-0.1-0.2-0.1-0.3c0,0,0-0.1,0-0.1c0.1,0,0.1,0,0.1,0.1c0,0,0-0.1,0-0.2
			c0,0-0.1,0.1-0.1,0c0.1-0.1,0-0.1,0.1-0.2c0,0.1-0.1,0-0.1-0.1c0,0,0.1,0,0.1,0c0-0.1-0.1-0.1-0.1-0.2c0,0,0.1,0,0.1,0
			c0,0,0-0.2-0.1-0.2l0,0.1c0-0.2-0.2-0.2-0.2-0.4c0,0,0.1,0,0.1-0.1c0,0-0.1-0.1-0.2-0.1c0-0.1-0.1-0.1-0.1-0.2
			c0.1,0.1,0.2,0.1,0.3,0.2c0-0.1,0,0,0-0.1c0-0.1,0.1,0,0.1,0.1c0-0.1-0.1-0.2-0.1-0.3c0,0-0.2-0.1-0.2-0.1
			c0.1,0.1,0.1,0.1,0.2,0.2c0,0-0.2-0.1-0.3-0.2c0-0.1,0.1,0,0.1,0c0,0-0.1-0.1-0.1-0.2l0.1,0.1c0-0.1-0.1-0.1-0.2-0.3
			c0,0,0-0.1,0-0.1c0,0.1-0.1,0.1-0.1,0.1c0,0,0-0.1-0.1-0.1l0,0l0,0l0,0c0,0,0-0.1-0.1-0.1c0,0,0.1,0.1,0.1,0c0,0,0,0-0.1,0
			c0,0,0,0,0-0.1c-0.1,0-0.1-0.2-0.1,0c-0.1-0.1,0-0.1-0.1-0.2c0,0-0.1,0-0.1-0.1c0,0,0-0.1,0-0.1c0,0,0,0,0,0l0,0c0,0,0,0,0,0
			c-0.1-0.2-0.1-0.3-0.1-0.5c0,0,0-0.1,0-0.1c0,0,0,0-0.1-0.1c0-0.1,0,0.1,0.1,0c0,0-0.1-0.1-0.1-0.2c0,0,0,0.2,0.1,0.3
			c0,0,0,0-0.1,0c-0.1-0.2-0.1-0.4-0.2-0.6c0-0.1-0.1-0.5-0.1-0.7c0,0,0-0.1,0-0.1c0-0.1,0-0.2,0-0.4l0-0.1l0,0l0,0
			c0-0.1,0-0.3,0-0.4c0,0,0,0,0,0c0,0,0-0.1,0-0.1c0,0,0,0,0,0c0,0,0,0,0,0c0,0,0,0,0,0c0-0.1,0-0.1,0-0.2c0,0,0,0,0,0c0,0,0,0,0,0
			c0,0,0-0.1,0-0.1c0,0,0,0,0,0c0,0,0,0,0,0c0.1-0.8,0.2-1.6,0.6-2.5c0-0.1,0.1-0.1,0.2-0.2c-0.1,0.1,0,0,0,0c0,0,0,0,0,0
			c0,0,0,0,0,0c0.1-0.1,0.1-0.1,0.2-0.2c0-0.1,0.1-0.2,0.1-0.3l0,0.1c0,0,0,0,0,0c0-0.1,0.1-0.1,0.1-0.2c0,0-0.1,0.1-0.1,0.2
			c0,0-0.1,0-0.1,0c0,0.1-0.3,0.2-0.3,0.4c0,0,0,0,0,0c0,0.1,0,0.1-0.1,0.2v0c-0.1,0.3-0.2,0.4-0.4,0.7l0,0c0,0.1,0,0.1-0.1,0.1
			c0,0.1,0.1-0.2,0.1-0.1c-0.1,0.1-0.2,0.5-0.3,0.5c0,0.1,0,0,0,0.1l0,0l0,0c0,0.1-0.1,0.1-0.1,0.1c0,0,0-0.1,0-0.1
			c-0.1,0.1-0.1,0.3-0.1,0.3l0-0.1c-0.1,0.3-0.2,0.7-0.2,1l0,0c0,0.2,0,0.2-0.1,0.4l0,0c0,0.1,0,0.1,0,0.2c0-0.1,0,0.1-0.1,0
			c0,0.3,0,0.1,0.1,0.3l0,0c0,0.1,0,0.1,0,0.2c0-0.1,0,0.1-0.1,0c-0.1,0.3,0.1,0.4,0,0.5c0.1,0.1,0-0.2,0.1-0.2
			c0-0.1,0.1,0.1,0.1,0.2c0,0.1-0.1,0.1-0.1,0.4c0,0,0,0,0,0c0,0.1,0,0.2,0,0.3c0.1,0,0,0.1,0.1,0.1c0-0.1,0-0.1,0-0.2
			c0,0.1,0.1,0.2,0.1,0.4c0,0,0-0.1-0.1-0.1c0,0.1,0,0.1,0,0.2c-0.1,0-0.1-0.2-0.1-0.4c0,0.1,0.1,0.2,0,0.2c0.1,0.1,0,0.2,0.1,0.3
			l0,0c0,0,0,0.1,0,0.1l-0.1-0.1c0,0.1,0,0.1,0.1,0.2c0,0,0,0,0-0.1c0.1,0.2,0,0.2,0.1,0.5c0,0,0-0.1,0-0.1c0,0.1,0,0.1,0,0.2
			c0.1,0.2,0,0,0.1,0c0,0.1,0.1,0.1,0.1,0.2l0,0c0.1,0.2,0.1,0,0.2,0.2l-0.1-0.1l0.1,0.1l0,0c0.1,0.1,0.1,0.1,0.1,0.3
			c0,0,0.1,0,0.1,0.1c0,0.1-0.1,0,0,0.1c0,0-0.1,0-0.1-0.1c0,0,0,0-0.1,0c0,0.1,0.1,0.2,0.1,0.2c0,0,0,0,0-0.1
			c0.1,0.1,0.1,0.1,0.2,0.2c0,0,0,0,0,0c0,0,0.1,0.1,0.1,0.1c0,0-0.1,0-0.1,0l0.1,0.2c0,0,0,0.1,0,0.1c0,0.1,0.2,0.2,0.2,0.4
			c0,0,0,0,0,0c0,0.1,0,0.3,0.1,0.4c0,0,0,0.1,0,0.1c0,0.1,0.1-0.1,0.1,0.1c0,0.1,0,0.1-0.1,0.1c0,0.1,0.1,0.2,0,0.3
			c0,0,0-0.1,0-0.1l0,0.1c0-0.1,0-0.2-0.1-0.1c0.1,0-0.1,0.4,0,0.4c0,0,0,0,0,0.1c0,0,0,0,0,0c-0.1,0.1,0,0.1,0,0.3
			c0,0.1-0.1,0.1-0.1,0l0,0.1c0,0,0,0,0,0c0,0.1-0.1,0.1-0.1,0.2l0,0c0,0,0,0.1,0,0.1c0,0,0,0,0,0l0,0.1c0,0,0-0.1,0-0.1
			c-0.1,0,0,0.1-0.2,0.2c0,0,0-0.1,0.1-0.1c-0.1,0-0.1,0.1-0.2,0.1c0,0,0.2-0.1,0.2,0c0,0-0.1,0-0.1,0.1c0,0-0.1,0-0.1,0.1l0,0
			c-0.1,0.1,0,0.1-0.1,0.1c-0.1,0-0.1,0-0.1,0c-0.1,0.1,0.1,0,0,0.1c-0.1,0-0.2,0.1-0.3,0.1c0,0,0,0,0,0l0,0.3c0,0,0,0,0,0
			L138.4,128.9z"/>
		<path d="M153,181.7C153,181.7,153,181.7,153,181.7c0.8,0.1,1.5,0.1,2.3,0.2c0.3,0,0.6-0.2,0.7-0.5c0-0.3-0.2-0.6-0.5-0.7
			c-0.8-0.1-1.5-0.2-2.3-0.2c-0.3,0-0.6,0.2-0.6,0.5C152.4,181.4,152.6,181.7,153,181.7"/>
		<path d="M154.1,211.7l-0.5,0l-0.5,0c-0.3,0-0.7,0-1,0l-1-0.1c-1.4-0.1-2.7-0.3-4.1-0.6c-1.4-0.3-2.7-0.6-4.1-0.9
			c1.2,0.7,2.6,1.1,3.9,1.5c1.4,0.4,2.8,0.6,4.2,0.7c1.4,0.1,2.8,0.1,4.3-0.1c1.4-0.2,2.8-0.7,4-1.3c-1.4,0.3-2.7,0.6-4.1,0.7
			C154.8,211.7,154.4,211.7,154.1,211.7"/>
		<path d="M130,243.1l-0.8,4c2,0.4,2.8-0.1,3.1-1.5C132.6,244.3,132.1,243.5,130,243.1"/>
		<path d="M141.7,119.4L141.7,119.4L141.7,119.4 M151.9,118.1L151.9,118.1C151.9,118.2,151.9,118.2,151.9,118.1
			C151.9,118.2,151.9,118.2,151.9,118.1 M149.7,119.2c0.1,0,0.1,0,0.2,0c0,0,0,0,0.1-0.1c0,0,0.1,0,0.1,0c0,0,0,0,0,0h0c0,0,0,0,0,0
			c0.2-0.1,0.3-0.1,0.5-0.1c0,0,0.1,0,0.1,0c0,0,0,0,0.1-0.1c0.1,0-0.1,0.1,0,0c0,0,0.1-0.1,0.2-0.1c0,0-0.2,0.1-0.3,0.1
			c0,0,0,0,0-0.1c0.1,0,0.1-0.1,0.2-0.1c0,0,0,0,0.1,0c0,0,0,0,0,0c0.1,0,0.2-0.1,0.3-0.1c0.1,0,0.4-0.3,0.6-0.4
			c0,0,0.1-0.1,0.1-0.1c0.1-0.1,0.3-0.3,0.4-0.4l0,0h0c0,0,0,0,0,0c0,0,0.1-0.1,0.1-0.1c0,0,0,0,0,0l0-0.1c0,0,0,0,0,0c0,0,0,0,0,0
			c0,0,0,0,0,0c0-0.1,0.1-0.1,0.1-0.1c0,0,0,0,0,0c0,0,0,0,0,0c0,0,0,0,0,0c0,0-0.1,0-0.1,0c0,0,0,0,0,0c0,0,0,0,0,0
			c-1,0.1-2,0.3-3.5,0c-0.1,0-0.2,0-0.3,0c0,0-0.1,0-0.1-0.1c-0.1,0-0.3-0.1-0.5-0.1c0,0,0,0,0,0c-0.1,0-0.1,0-0.2,0l0,0
			c-0.3,0-0.4,0-0.8-0.1l0,0c-0.1,0-0.1,0-0.1,0c-0.1,0,0.2,0,0.1,0c-0.1-0.1-0.5,0-0.6,0c-0.1,0,0,0-0.1,0l0,0l0,0
			c-0.1,0-0.1,0-0.1,0c0,0,0.1,0,0.1,0c-0.1,0-0.3,0-0.3,0l0.1,0c-0.3,0.1-0.7,0.1-1,0.1l0,0c-0.2,0.1-0.2,0-0.4,0.1l0,0
			c0,0-0.1,0-0.2,0.1c0.1,0-0.1,0,0,0c-0.2,0.1-0.1,0-0.3,0.1l0,0c0,0-0.1,0-0.2,0.1c0.1,0-0.1,0,0,0c-0.3,0.1-0.4,0.2-0.5,0.2
			c-0.1,0.1,0.2-0.1,0.2,0c0.1,0-0.1,0.1-0.2,0.1c-0.1,0-0.1,0-0.3,0.1c0,0,0,0,0,0c-0.1,0-0.1,0.1-0.2,0.1c0,0-0.1,0.1-0.1,0.1
			l0.2-0.1c-0.1,0.1-0.2,0.1-0.3,0.2c0,0,0,0,0.1-0.1c-0.1,0-0.1,0.1-0.1,0.1c0,0,0.2-0.1,0.3-0.2c-0.1,0-0.2,0.1-0.1,0.1
			c-0.1,0.1-0.2,0.1-0.3,0.2l0,0c0,0-0.1,0.1-0.1,0.1l0-0.1c-0.1,0.1-0.1,0.1-0.2,0.1c0,0,0,0,0,0c-0.2,0.2-0.2,0.1-0.4,0.3
			c0,0,0.1,0,0,0c0,0-0.1,0.1-0.1,0.1c-0.2,0.2,0,0,0,0.1c-0.1,0-0.1,0.1-0.1,0.2l0,0c-0.2,0.2,0,0.1-0.2,0.2l0-0.1l-0.1,0.1l0,0
			c0,0.1-0.1,0.1-0.1,0.2l-0.1,0.2l0.1,0c0,0,0,0,0,0c0,0,0,0,0,0c0,0,0,0,0,0c0,0-0.1,0-0.1,0.1c0,0,0,0,0.1-0.1l-0.1,0.1l0,0
			c0,0,0,0,0,0l0.1,0.1h0l0,0l0,0c0,0,0.1,0,0.1,0c0.1,0,0.1-0.1,0.2-0.1c0,0,0.1,0,0.1,0c0,0,0.1,0,0.1,0c0,0,0,0,0,0l0,0h0
			c0,0,0,0,0.1,0c0.1,0,0.3,0,0.4-0.1l0.1,0c0.1,0-0.1,0,0.1-0.1c0.2,0,0.1,0,0.1,0c0,0,0.1,0,0.2,0c0,0,0,0,0.1,0c0,0,0,0,0,0
			c0,0,0,0,0,0c0,0,0,0,0,0c0,0,0,0,0,0c0,0,0,0,0,0c0,0,0,0,0,0c0,0,0,0,0,0c0,0.1,0.1,0.2,0.1,0.2l0,0.1c0,0,0,0,0,0
			c0,0.1,0.1,0.1,0.1,0.3c0,0.1,0,0.1,0,0.1c0,0,0,0.1,0.1,0.1c0,0,0,0,0,0c0,0.1,0.1,0.1,0.1,0.2h0c0,0,0.1,0.1,0.1,0.1
			c0,0,0,0,0,0l0.1,0.1c0,0-0.1,0-0.1-0.1c0,0.1,0.1,0.1,0.2,0.3l-0.1-0.1c0,0.1,0.1,0.1,0.2,0.2c0,0-0.2-0.2-0.1-0.1
			c0,0,0.1,0.1,0.1,0.1c0,0,0,0.1,0.1,0.1l0,0c0.1,0.1,0.1,0,0.1,0.1c0.1,0.1,0.1,0.1,0.1,0.1c0.1,0.1-0.1-0.1,0.1,0
			c0.1,0.1,0.2,0.1,0.4,0.2c0.1,0,0,0,0,0l0.1,0c0,0,0,0,0,0c0.1,0,0,0,0.1,0c0,0,0.2,0.1,0.4,0.1c0,0,0,0,0,0c0.2,0,0.2,0,0.3,0
			l0.1,0c-0.1,0,0,0,0.1-0.1c0,0,0,0,0,0c0,0,0,0,0,0c0,0,0,0,0,0l0,0c0,0,0,0,0,0c0,0,0.1,0,0.1,0c0,0,0,0,0,0c0,0,0,0-0.1,0
			c0,0-0.1,0-0.1,0c0,0,0,0,0,0c0,0,0,0,0,0c0,0,0,0,0.1,0c0,0,0,0,0,0c0,0,0,0,0.1,0l0,0l0,0c0.1,0,0.2,0,0.2,0
			c0.2-0.1,0.3-0.1,0.5-0.2c-0.1,0,0,0,0,0.1c-0.1,0-0.2,0.1-0.3,0.1c0.1,0,0.1,0,0,0c0.1,0,0.2-0.1,0.2-0.1c0,0,0.1,0,0.1,0
			c-0.1,0,0.2-0.1,0.2-0.2c0,0,0,0,0,0c0,0,0.1-0.1,0.2-0.1c0,0,0,0,0,0c0.1,0,0.2-0.1,0.2-0.1c0.1,0,0.1-0.1,0.2-0.2
			c-0.5-0.2-0.8-0.5-0.8-0.8c0.1-0.4,0.6-0.6,1.3-0.5c0.1,0,0.2,0,0.3,0.1c0-0.1,0-0.2,0-0.4c0,0,0,0.1,0.1,0c0,0,0-0.1,0-0.2
			c0,0,0,0,0,0c0.1,0,0.1,0,0.2,0c0,0,0,0,0,0c0,0-0.1,0-0.1,0c0,0,0,0,0,0c0,0,0,0,0,0c0,0,0,0,0,0c0,0,0,0,0,0c0,0,0,0,0,0l0.1,0
			c0,0,0.2,0,0.2,0l-0.3,0c0,0,0.2-0.1,0.4-0.1c0.1,0,0,0,0,0.1c0,0,0.2,0,0.2,0l-0.1,0c0.1,0,0.2,0,0.3,0c0,0,0.1,0,0.1,0
			c0,0-0.1-0.1-0.1-0.1c0.1,0,0.1,0,0.2,0l0,0l0,0l0,0c0,0,0.1,0,0.1,0c0.1,0-0.1,0.1,0,0.1c0,0,0,0,0.1,0
			C149.7,119.2,149.6,119.3,149.7,119.2C149.7,119.2,149.9,119.2,149.7,119.2"/>
		<path d="M149.1,181.7c0,0,0.1,0,0.1,0c0.3,0,0.7,0,1.1,0c0.3,0,0.6-0.3,0.6-0.6c0-0.3-0.3-0.6-0.6-0.6c-0.4,0-0.7,0-1.1,0
			c-0.3,0-0.6,0.3-0.5,0.6C148.6,181.5,148.8,181.7,149.1,181.7"/>
		<path d="M140.4,133.7c-0.1,0-0.1,0.1-0.2,0.1c0,0-0.1,0-0.2,0c0,0,0,0,0,0c-0.2,0,0,0-0.1,0c0.1,0,0,0,0,0.1
			c0.1,0,0.1-0.1,0.1-0.1c0.1,0,0.1,0,0.1,0c-0.1,0.1-0.2,0.1-0.4,0.2c-0.1,0-0.3,0.1-0.4,0.2c0,0,0,0,0,0.1c-0.1,0-0.1,0.1-0.2,0.1
			l0,0l0,0c-0.1,0-0.1,0.1-0.2,0.1c0,0,0,0,0,0l-0.1,0c0,0,0,0,0,0c0,0,0,0,0,0c0,0,0,0,0,0c0,0-0.1,0-0.1,0c0,0,0,0,0,0
			c0,0,0,0,0,0c0,0-0.1,0-0.1,0c0,0,0,0,0,0c0,0,0,0,0,0c-0.7,0.3-1.5,0.5-2.2,0.4c0,0-0.1,0-0.2,0c0,0,0-0.1,0-0.1
			c-0.1,0.1-0.2-0.2-0.3-0.1c0,0,0,0,0,0c0,0-0.1,0-0.1,0l0,0c-0.2,0-0.3-0.1-0.5-0.2l0,0c0,0,0,0-0.1-0.1c-0.1,0,0.1,0,0.1,0.1
			c0-0.1-0.3-0.1-0.3-0.2c-0.1,0,0,0.1-0.1,0l0,0l0,0c0,0-0.1-0.1,0-0.1c0,0,0,0,0,0c0-0.1-0.2-0.1-0.2-0.1l0.1,0
			c-0.2-0.1-0.4-0.2-0.6-0.2l0,0c-0.1,0-0.1-0.1-0.2-0.1l0,0c0,0-0.1,0-0.1,0c0,0,0-0.1,0-0.1c-0.2,0-0.1,0-0.2,0l0,0
			c0,0-0.1,0-0.1,0c0.1,0,0-0.1,0.1-0.1c-0.1-0.2-0.3-0.1-0.2-0.2c-0.1,0,0.1,0.1,0,0.1c0,0-0.1,0-0.1,0c0,0,0-0.2-0.1-0.2
			c0,0,0,0,0,0c0-0.1-0.1,0-0.1-0.1c-0.1,0,0,0-0.1,0c0,0,0.1,0,0.1,0c0,0-0.2,0-0.2-0.1c0,0,0.1,0,0.1,0c0,0-0.1,0,0,0
			c0.1,0,0.1,0.1,0.2,0.1c0,0-0.1,0,0,0c-0.1,0-0.1,0-0.1,0c0,0,0,0-0.1,0l0.1,0c0,0-0.1,0-0.1,0l0.1,0c-0.1,0,0,0,0,0
			c0,0-0.1,0-0.1,0c-0.2-0.1,0.2,0,0.1,0c0,0,0,0-0.1,0c0,0,0,0,0.1,0c-0.1,0-0.1,0-0.2-0.1c0.1,0-0.1,0-0.1-0.1l0.1,0.1
			c0.1,0-0.2-0.1,0-0.1c0,0,0.1,0,0.1,0.1c0,0,0,0,0,0l0.1,0.1c0,0,0,0,0,0c-0.1,0-0.1-0.1-0.1-0.1c0.1,0,0,0,0.1,0c0,0,0.1,0.1,0,0
			l0,0c0.1,0,0,0,0.1,0c0,0,0,0,0,0c0,0,0,0,0-0.1c0,0,0,0,0,0c0,0,0,0,0,0c0,0,0,0.1,0,0.1c0,0,0,0,0,0c0,0,0,0,0,0.1
			c0,0,0,0,0.1,0c0.1,0,0.1,0,0.2,0c0,0,0,0,0,0l0,0l0,0c0,0,0,0,0,0c0.1,0,0.2,0.1,0.3,0l0.1,0.1c0.1,0-0.1-0.1,0.1-0.1
			c0.1,0,0,0.1,0.1,0.1c0.1,0,0.1-0.1,0.2,0c0,0-0.1,0-0.1,0l0.1,0c-0.1,0.1-0.2,0-0.1,0.1c0-0.1,0.3,0,0.3-0.1l0,0c0,0,0,0,0,0
			c0.1,0.1,0.1-0.1,0.2-0.1c0,0,0.1,0,0,0c0,0,0,0,0,0c0,0,0.1,0,0.1,0c0,0,0,0,0,0l0.1,0l0,0c0,0,0.1-0.1,0.1-0.1c0,0,0,0,0,0
			l0.1,0c0,0,0,0.1-0.1,0.1c0.1,0.1,0.1,0,0.2,0l-0.1,0c0,0.1,0.1,0,0.2,0.1c0,0-0.2-0.1-0.1-0.1c0,0,0.1,0,0.1,0c0,0,0,0,0.1,0
			l0,0.1c0.1,0,0.1,0,0.1-0.1c0.1,0,0.1,0.1,0.1,0.1c0.1,0-0.1-0.1,0.1-0.1c0.1,0,0.2,0,0.3,0c0.1,0,0,0,0,0.1l0.1,0c0,0,0,0,0,0
			c0,0,0-0.1,0.1-0.1c0-0.1,0.1,0.1,0.2,0c0,0,0,0,0,0.1c0.1,0,0.1,0,0.2-0.1l0.1,0c-0.1,0,0-0.1,0.1-0.1l0,0c0,0,0,0,0,0
			c0,0,0,0,0.1,0c0,0,0,0,0,0.1l0,0c0,0-0.1,0.1-0.1,0.1c0,0,0,0,0,0c0,0,0,0,0,0c0,0,0,0,0,0l0,0.1l0,0l0.1,0.1
			c0.1-0.1,0.2-0.1,0.4-0.2c0,0,0,0.1,0,0.1c0-0.1-0.1,0-0.2,0c0,0,0,0,0,0l0.2,0c0,0,0,0,0.1,0.1c0-0.1,0.1,0,0.2-0.1
			c0,0,0,0.1-0.1,0c0.1,0.1,0.1-0.1,0.2,0c0,0,0,0,0,0c0,0,0.2,0,0.1,0l0,0c0.1,0,0.4,0.1,0.4,0c0,0,0,0.1,0,0.1l0.2-0.2
			c0,0,0,0,0.1,0c0,0.1,0,0.2-0.1,0.2c0,0,0.1,0,0.1,0c0,0,0-0.1,0-0.1c0.1,0.1,0,0,0.1,0.1c0,0,0-0.1,0.1-0.1c0,0,0,0.1,0,0.1
			l0.1-0.1c0,0,0,0.1,0,0.1c0,0,0.1,0,0.1,0l0,0c0.1,0,0.2-0.1,0.3-0.1c0,0-0.1,0.1,0,0.1c0,0,0.1-0.1,0.1-0.1l0.1,0
			c-0.1,0.1-0.2,0.1-0.2,0.1c0,0,0,0,0.1,0c0,0,0,0-0.1,0l0.2,0c0-0.1,0.1,0,0.1-0.1l-0.2,0c0-0.1,0.1-0.2,0.3-0.1c0,0,0,0.1,0,0.1
			c0,0,0.1,0,0.1,0c0,0,0,0,0,0c0,0,0.1-0.1,0.1,0c0,0,0,0.1,0,0c0,0,0.1-0.1,0.2-0.2l0.1,0l0,0l0,0l0,0l0.1,0
			c-0.1,0-0.2,0.1-0.3,0.1c0,0,0.1,0,0.1,0c0,0-0.1,0,0,0c0.1,0,0.1,0,0.1,0c0.1,0,0,0,0.1,0C140.1,133.7,140.2,133.6,140.4,133.7
			L140.4,133.7C140.4,133.6,140.4,133.6,140.4,133.7C140.4,133.7,140.5,133.7,140.4,133.7L140.4,133.7z M138.3,136.9
			c-0.7,0.1-1.4-0.1-1.4-0.3c0-0.3,0.5-0.6,1.3-0.7c0.7-0.1,1.4,0.1,1.4,0.3C139.6,136.5,139,136.8,138.3,136.9 M136.1,136.8
			c-0.2,0-0.3-0.1-0.4-0.3c0-0.2,0.1-0.3,0.3-0.3c0.2,0,0.3,0.1,0.4,0.3C136.4,136.6,136.3,136.8,136.1,136.8 M135.3,133.3
			C135.2,133.3,135.2,133.3,135.3,133.3C135.2,133.2,135.2,133.2,135.3,133.3 M136.8,133.1C136.8,133.1,136.7,133.1,136.8,133.1
			C136.7,133.1,136.7,133.1,136.8,133.1C136.7,133.1,136.7,133.1,136.8,133.1 M130,133.2c0.1,0,0.1,0,0.1,0.1
			C130.1,133.2,130,133.2,130,133.2 M141.8,132.2c-0.1,0-0.1-0.1-0.1-0.1c-0.1,0-0.2,0-0.3-0.1c-0.1-0.1-0.2-0.1-0.3-0.1
			c0,0,0.1,0,0,0c0,0-0.1,0-0.1,0c0,0,0,0-0.1,0c0,0-0.1,0-0.1-0.1h0c-0.4-0.2-0.5-0.3-0.9-0.6l0,0.1c-0.1-0.1-0.1-0.1-0.1-0.1
			c-0.1,0,0.2,0.1,0.1,0.2c0-0.1-0.2-0.2-0.3-0.2c-0.2-0.1-0.3-0.1-0.4-0.2c-0.2,0,0,0.1-0.1,0l0,0l0,0c-0.1,0-0.2,0-0.2-0.1
			c0,0,0.1,0,0.1,0c-0.1,0-0.4,0-0.5,0c0.1,0,0.1,0,0.2,0c-0.2,0-0.5,0.1-0.7,0.2c-0.2,0.1-0.4,0.2-0.6,0.3l0,0
			c-0.3,0.2-0.2,0.1-0.5,0.2l0,0c0,0-0.1,0.1-0.2,0.1c0.1,0-0.1,0,0-0.1c-0.1,0-0.2,0-0.2,0c0,0,0,0-0.1,0l0,0c-0.1,0-0.1,0-0.2-0.1
			c0.1,0-0.1-0.1,0.1-0.1c-0.3-0.2-0.5-0.2-0.6-0.3c-0.2,0,0.2,0.2,0.2,0.2c0,0.1-0.1,0-0.2-0.1c-0.1-0.1-0.1-0.2-0.4-0.3
			c0,0,0,0,0.1,0c-0.1-0.1-0.2-0.1-0.3-0.2c-0.1,0-0.2-0.1-0.2,0c0.1,0,0.2,0.1,0.2,0.1c-0.1-0.1-0.3,0-0.5-0.2c0,0,0.1,0,0.2,0
			c-0.1,0-0.1,0-0.2-0.1c0-0.1,0.3,0.1,0.5,0.1c-0.1-0.1-0.3-0.1-0.2-0.1c-0.1,0.1-0.3-0.1-0.5-0.1l0,0c0,0-0.1,0-0.2,0
			c0,0,0.1,0,0.1,0c-0.1,0-0.2,0-0.3,0c0,0,0,0.1,0.1,0.1c-0.2,0-0.3,0-0.3,0c-0.1,0-0.1,0-0.3,0c0.1,0,0.2,0,0.1,0
			c-0.1,0-0.2,0-0.3,0c-0.3,0.1,0.1,0-0.1,0.1c-0.1,0-0.1,0.1-0.2,0.1l0,0c-0.3,0.1,0,0.1-0.3,0.2l0.1-0.1l-0.1,0.1l0-0.1
			c-0.1,0.1-0.2,0.1-0.3,0.2c0,0,0,0.1-0.1,0.1c-0.1,0,0-0.1-0.1,0c0,0,0.1-0.1,0.2-0.1c0,0,0,0,0-0.1c-0.1,0-0.2,0.1-0.3,0.2
			c0,0,0.1,0,0.1,0l-0.2,0.2c0,0,0,0,0-0.1c0,0-0.1,0.1-0.1,0.1c0,0,0-0.1,0.1-0.2l-0.2,0.2c0,0-0.1,0-0.1,0
			c-0.1,0.1-0.3,0.3-0.4,0.3c0,0,0,0,0,0l0,0l0,0c0,0,0,0,0,0c-0.1,0-0.2,0-0.2,0.1c-0.1,0-0.1,0-0.2,0l0,0l0,0l0,0l0,0
			c-0.1,0,0,0,0,0l-0.1,0c0,0,0,0,0,0c-0.2,0-0.1-0.1-0.1-0.1c-0.1,0-0.3,0.1-0.5,0c0.1,0,0.1,0,0.2,0l-0.1-0.1c0.2,0,0.3,0,0.2-0.1
			c0,0.1-0.5,0-0.6,0l-0.6,0.4h0.4c0,0,0,0,0,0l0.1,0.1c0,0,0,0,0,0c0.1,0.2,0.2,0,0.3,0.2c0.1,0.1,0.1,0.1,0,0.1l0.2,0.1
			c0,0,0,0,0,0l0.2,0.2l0,0c0,0,0.1,0.1,0.2,0.1c0,0.1,0,0,0,0l0.1,0.1c0,0.1-0.1,0-0.2-0.1c0,0.2,0.1,0.1,0.3,0.3l-0.1-0.1
			c0,0.1,0.1,0.2,0.2,0.3c0,0-0.2-0.3,0-0.2c0,0,0.1,0.1,0.2,0.1c0,0,0,0.1,0.1,0.2l0,0c0.1,0.1,0.1,0,0.2,0.1
			c0.1,0.1,0.1,0.2,0.1,0.2c0.1,0.2,0-0.2,0.1,0c0.1,0.1,0.2,0.2,0.3,0.4c0.1,0.1,0,0,0,0.1l0.1,0.1c0,0,0,0,0,0
			c0.1,0.1,0.1,0,0.1,0.1c0.1,0,0.1,0.3,0.2,0.4c0,0,0,0-0.1,0c0.2,0.2,0.1,0.1,0.3,0.3l0,0.2c0-0.1,0.1,0,0.2,0.1c0,0,0,0,0,0
			c0,0,0,0,0,0.1c0,0,0,0,0,0c0,0,0,0,0,0c0,0,0,0,0,0c0,0,0,0.1,0.1,0.1c0,0,0,0-0.1,0c0,0,0-0.1,0-0.1c-0.1,0-0.1-0.1-0.1,0
			c0,0,0,0,0,0.1c0,0,0,0,0,0c0,0,0,0,0.1,0.1l0,0.1l0,0l0.1,0.3c0.1,0.1,0.2,0.1,0.3,0.2c0.1,0.1,0.2,0.2,0.3,0.3
			c-0.1,0-0.1,0-0.1,0.1c0-0.1-0.1-0.1-0.1-0.1c-0.1-0.1-0.1-0.1-0.2-0.2c0.1,0.1,0,0.1,0,0.1c0.1,0.1,0.2,0.2,0.3,0.2
			c0,0,0,0.1,0.1,0.1c0-0.1,0.2,0.1,0.3,0.2c0,0-0.1,0-0.2-0.1c0.1,0.2,0.3,0.1,0.4,0.2c0,0,0,0-0.1,0c0.1,0,0.3,0.2,0.2,0.2l0,0
			c0.2,0.2,0.7,0.4,0.8,0.4c0,0-0.1,0.1-0.1,0.1c0.1,0,0.2,0,0.4,0c0,0,0.1,0,0.1,0.1c0,0.1,0,0.2-0.2,0.1c0.1,0,0.1,0.1,0.3,0.1
			c0,0-0.1-0.1,0-0.1c0.1,0.1,0.1,0.1,0.3,0.2c-0.1,0,0-0.1,0.1-0.1c0,0,0,0.1-0.1,0.1c0.1,0,0.2,0,0.3,0c-0.1,0,0,0.1,0,0.1
			c0,0,0.2,0.1,0.3,0.1l-0.1-0.1c0.3,0.1,0.3-0.1,0.6,0c0,0-0.1,0.1,0,0.2c0,0,0.1-0.1,0.2-0.1c0,0,0.1,0,0.1,0c0.1,0,0.2,0,0.2,0
			c-0.1,0.1-0.3,0.1-0.4,0.1c0.1,0,0,0,0.2,0.1c0,0,0,0,0,0c0,0-0.1,0-0.1,0c0.1,0,0.3,0,0.4,0c0-0.1,0.3-0.1,0.3-0.1l-0.4,0
			c0-0.1,0.2-0.2,0.5-0.1c0.1,0-0.1,0.1,0,0.1c0,0,0.2,0,0.3,0l-0.1,0c0.1,0,0.2-0.1,0.4,0c0.1,0,0.2,0.1,0.2,0
			c-0.1,0-0.1-0.1-0.1-0.2c0.1,0,0.1,0,0.2,0l0,0l0,0l0,0c0.1,0,0.1,0,0.2,0c0,0-0.1,0.1-0.1,0.2c0,0,0.1,0,0.1-0.1
			c0.1,0,0,0.1,0.1,0c0-0.1,0.3-0.1,0.1-0.1c0.1,0,0.1,0,0.3-0.1c0,0,0-0.1,0.1-0.1c0.1,0,0.1,0,0.2,0c0,0,0,0,0,0h0c0,0,0,0,0,0
			c0.1,0,0.2-0.1,0.3-0.1c0.1,0,0.2-0.1,0.3-0.1c0,0,0.1,0,0.1,0c0,0,0-0.1,0.1-0.1c0.2,0-0.1,0.1,0,0.1c0,0,0.2-0.2,0.2-0.2
			c-0.1,0-0.2,0.1-0.3,0.2c0,0,0-0.1,0-0.1c0.2-0.1,0.5-0.3,0.7-0.5c0.1,0,0.2-0.1,0.3-0.2c0.1-0.1,0.3-0.3,0.4-0.4c0,0,0-0.1,0-0.1
			c0.1-0.2,0.2-0.4,0.3-0.6l0,0l0,0c0-0.1,0.1-0.2,0.1-0.2c0,0,0,0,0,0l0-0.1c0,0,0,0,0,0c0,0,0,0.1,0,0c0,0,0,0,0-0.1
			c0-0.1,0-0.1,0.1-0.2c0,0,0,0,0,0c0,0,0,0,0,0c0,0,0-0.1,0-0.1c0,0,0,0,0-0.1c0,0,0,0,0,0c0,0,0,0,0,0c0.1-0.5,0.4-1,0.7-1.5
			l1.3-1.3l-1.2,0.2C142.1,132.2,141.9,132.2,141.8,132.2"/>
		<path d="M97.1,229.3l-2.9,4.6c2,1.2,3.7,0.7,4.4-0.4C99.3,232.3,99.1,230.5,97.1,229.3"/>
		<path d="M123.7,199.5c0-0.4,0-0.7,0-1c0-0.3,0-0.7-0.1-1c-0.1-0.7-0.2-1.3-0.4-2c-0.2,0.3-0.3,0.7-0.3,1c0,0.4,0,0.7,0,1.1
			c0,0.4,0.1,0.7,0.3,1C123.2,198.9,123.4,199.2,123.7,199.5"/>
		<path d="M132.9,199.2c0.3,1.1,0.6,2.2,1.3,3.1c-0.3-1.1-0.5-2.2-0.7-3.2c0-0.3-0.1-0.5-0.1-0.8c0-0.3,0-0.5-0.1-0.8
			c-0.1-0.5-0.1-1.1-0.1-1.6l0-0.8l0-0.8c0-0.6,0-1.1,0-1.7l0-3.3c-0.3,1.1-0.5,2.2-0.6,3.3c-0.1,1.1-0.1,2.2-0.1,3.4
			C132.5,197,132.6,198.1,132.9,199.2"/>
	</g>
</g>
</svg>
